<?xml version="1.0" encoding="UTF-8"?>
<svg xmlns="http://www.w3.org/2000/svg" viewBox="0 0 1462.52 1100" width="1462.52" height="1100">
<title>Judya home badge - woman waving (full color)</title>
<g id="layer-navy" fill="#013060">
<path id="navy-1" fill-rule="evenodd" d="M217.59 781.39C218.88 778.19 219.74 779.15 220.6 777.77C222.31 775.03 222.62 770.38 223.61 767.27C225.55 761.18 230.58 753.53 231.14 747.63C226.54 748.78 219.27 763.47 216.89 768.22C215.52 770.96 212.89 774.27 215.61 776.44C214.69 777.84 214.62 779.15 213.96 780.52C213.52 781.46 212.02 780.59 211.32 781.77C209.97 784.02 209.48 787.21 208.8 789.73C205.59 801.7 204.83 812.97 206.67 825.24C207.47 830.5 215.53 845.34 211.07 848.76C204.4 853.88 190.26 848.16 183.59 844.82C161.52 833.77 144.15 811.42 138.07 787.51C130.17 756.43 134.41 731.06 146.23 701.61C148.65 695.58 160.52 676.15 161.13 673.87C162.24 669.74 160.68 661.63 160.29 657.23C159.83 652.25 160.26 646.13 160.95 641.19C163.64 621.97 168.77 603.49 178.64 586.54C201.61 547.1 245.41 512.9 286.97 494.71C331.44 475.25 374.58 462.84 410.43 427.65C447.31 391.47 473.55 339.13 492.72 291.51C500.67 271.77 509.44 251.79 519.83 233.19C551.22 176.96 576.62 149.51 627.56 110.74C640.82 100.65 655.55 92.22 670.32 84.58C735.66 50.76 813.03 40.08 884.18 59.61C899.31 63.76 914.17 70.99 927.18 79.67C930.87 82.14 933.86 85.97 937.72 88.09C941 89.88 945.9 90.16 949.51 91.26C960.03 94.44 970.55 99.31 979.91 105.07C1000.81 117.93 1017.57 134.08 1033.86 152.18C1034.67 153.08 1035.03 154.54 1035.74 155.55C1046.27 170.32 1054.04 185.68 1061.45 202.18C1074.91 232.14 1078.26 274.03 1074.93 306.35C1072.91 326.03 1069.77 345.18 1069.8 365.09C1069.83 384.81 1076.98 404.56 1081.69 423.53C1089.89 456.51 1097.46 493.71 1091.29 527.62C1087.14 550.42 1081.58 573.01 1069.4 593.09C1066.97 597.1 1064.44 601.16 1061.7 604.97C1057.86 610.31 1046.43 620.99 1044.85 625.31C1034.61 621.84 1026.05 614.12 1016.25 609.51C1003.53 603.53 990.26 599.93 976.85 596.31C973.4 595.38 969.65 595.34 966.12 594.88C964.82 594.71 963.71 593.93 962.46 593.68C959.57 593.11 956.37 593.86 953.44 593.61C951.93 593.49 950.63 592.47 949.14 592.35C942.58 591.82 935.76 592.34 929.18 592.34C925.98 592.34 922.04 592.08 918.91 592.72C917.47 593.02 916.15 594.11 914.61 593.86C912.89 593.59 911.36 592.75 909.69 592.4C908.64 592.18 907.54 592.47 906.48 592.24C898.39 590.43 892.34 585.15 888.69 577.83C887.93 576.31 886.31 574.37 886 572.72C883.97 562.03 882.54 550.1 883.73 538.98C883.87 537.68 884.67 536.59 884.92 535.32C885.55 532.13 883.98 528.08 886.02 525.2C888.19 522.12 892.85 522.38 895.98 521.3C903.74 518.63 912.15 516.88 919.67 513.35C940.77 503.41 961.13 491 975.83 472.72C977.43 470.74 979.59 469.11 981.07 467.05C997.3 444.32 1003.56 429.72 1011.02 403.07C1011.28 402.13 1012.44 396.4 1012.49 395.57C1012.58 393.87 1011.95 392.1 1012.2 390.45C1012.37 389.35 1013.29 388.63 1013.43 387.51C1014.15 381.84 1013.16 375.8 1015.38 370.41C1017.13 366.14 1025.06 361.68 1028.35 358.02C1033.15 352.67 1040.06 337.29 1040.8 330.17C1041.2 326.42 1040.99 321.8 1040.53 318.03C1040.38 316.75 1040.95 315.42 1040.67 314.2C1038.33 304.38 1033.01 292.79 1023.66 288.04C1021.5 286.94 1019.08 285.26 1016.73 284.65C1013.28 283.75 1007.5 286.12 1005.25 282.16C1003.23 278.58 1002.08 269.25 1000.62 264.88C996.63 252.9 991.26 241.4 985.33 230.22C976.3 213.19 962.32 196.13 947.8 183.33C943.68 179.69 939.07 176.45 934.81 172.92C928.78 167.93 921.32 164.43 914.79 160.17C904.91 153.71 893.42 148.73 882.25 145.03C880.32 144.39 873.48 141.35 871.88 141.69C869.54 142.2 868.55 147.45 867.6 149.34C863.67 157.18 860.29 165.28 856.34 173.16C850.8 184.2 842.39 200.99 835.51 210.81C830.63 217.77 825.97 225.08 821.57 232.36C816.15 241.32 804.01 255.56 800.25 263.52C806.26 264.95 819.26 267.16 812.78 276.95C808.49 283.43 804.27 278.84 800.01 279.42C794.92 280.13 786.09 282.52 782.36 286.25C780.05 288.56 778.43 291.24 776.24 293.65C773.62 296.53 770.03 298.38 767.48 301.14C766.08 302.65 764.94 304.61 763.62 306.24C760.92 309.55 757.39 312.2 754.54 315.37C752.98 317.1 751.9 319.23 750.24 320.95C731.14 340.66 710.78 358.17 689.38 375C683.4 379.71 676.44 383.5 670.15 387.81C663.84 392.13 656.87 382.48 652.01 379.75C648.15 377.57 643.72 376 639.47 374.81C638.42 374.52 637.31 374.82 636.26 374.64C634.99 374.42 633.86 373.62 632.6 373.44C628.52 372.84 625.07 373.94 621.21 374.64C605.64 377.43 590.99 388.38 586.42 404.23C585.58 407.11 585.44 410.11 584.85 413.01C584.54 414.52 583.67 415.73 583.65 417.32C583.29 444.88 601.31 472.72 628.15 481.42C636.3 484.06 645.49 484.68 654.12 484.15C655.4 484.08 656.56 483.32 657.79 483.01C658.85 482.74 659.93 483.01 661 482.83C666.34 481.94 671.66 478.94 676.45 476.55C679.14 475.21 682.94 471.36 686.09 471.65C689.37 471.94 692.29 476.25 694.54 478.34C700.17 483.57 706.84 488.55 713.14 492.99C716.54 495.4 720.37 497.8 724.03 499.78C727.11 501.44 741.21 507.44 742.56 508.66C745.86 511.65 746.61 516.79 747.24 520.96C747.43 522.24 748.25 523.34 748.45 524.62C748.77 526.73 748.29 528.94 748.51 531.06C748.64 532.36 749.44 533.45 749.7 534.72C750.47 538.55 750.01 543.68 749.77 547.59C749.67 549.12 748.65 550.38 748.5 551.89C748.28 554.18 748.94 556.72 748.29 558.95C747.26 562.46 742.51 578.23 737.35 576.11C732.86 574.27 729.19 560.18 727.49 555.61C720.53 536.83 715.99 526.43 695.18 521.38C691.75 520.55 687.41 519.22 683.8 520.32C669.72 524.6 654.96 528.48 640.92 533.3C630.48 536.88 619.87 541.09 609.14 543.47C598.64 545.81 586.18 551.39 575.61 554.71C544.83 564.39 514.01 574.06 483.29 584.2C467.39 589.46 451.18 595.13 435.03 599.85C423.29 603.29 404.01 607.94 393.98 614.27C392.41 615.26 391.11 616.97 389.8 618.28C386.91 621.17 383.93 623.96 381.94 627.56C378.17 634.42 376.14 644.71 377.67 652.51C378.58 657.17 380.81 662.03 382.41 666.51C389.83 687.28 396.6 708.27 403.63 729.19C407 739.22 413.78 751.58 413.65 762.18C413.63 763.99 407.12 770.77 405.5 772.58C397.92 781.09 391.13 790.75 384.54 800.06C372.06 817.69 360.36 835.86 349.53 854.55C343.64 864.69 338.91 875.72 333.68 886.22C329.91 893.78 321.18 922.29 317.52 925.85C313.7 923.95 308.42 922.86 303.78 921.61C298.24 920.1 292.83 917.63 287.59 915.32C262.57 904.31 236.08 878.6 226.34 852.82C219.33 834.29 216.93 821.92 216.93 802.08C216.93 798.38 219.8 785.04 219.13 783C219.03 782.69 217.74 781.52 217.59 781.39ZM408.67 480.29C403.33 482.07 395.41 487.86 390.24 491.17C384.8 494.64 366.95 502.87 360.64 505.31C320.42 520.86 277.16 534.57 244 563.2C236.11 570.01 229.02 578.21 222.21 585.92C213.55 595.74 205.17 607.46 200.52 619.85C204.43 617.43 208.64 610.26 211.96 606.5C218.39 599.23 225.76 592.11 232.91 585.55C245.5 573.99 260.57 565.43 274.63 555.81C278.12 553.43 282.41 552.01 286.13 550.01C300.01 542.54 314.5 535.87 329.31 530.33C332.1 529.29 334.67 527.56 337.38 526.33C363.04 514.68 388.46 499.98 408.67 480.29Z"/>
<path id="navy-2" fill-rule="evenodd" d="M965.12 244.54C961.59 244.72 953.49 237.48 940.33 239.51C933.8 240.51 929.4 247.43 922.83 247.2C918.66 247.05 915.34 242.72 915.94 238.74C916.44 235.41 921.16 232.27 923.47 230.13C933.09 221.21 956.07 220.58 966.32 228.91C967.75 230.07 969.93 231.91 970.81 233.53C972.96 237.45 969.83 244.31 965.12 244.54Z"/>
<path id="navy-3" fill-rule="evenodd" d="M953.54 285.27C975.33 286.07 984.79 320.6 968.17 333.31C965.96 335 964.28 336.53 961.46 337.23C959.16 337.8 956.09 337.43 953.73 337.34C950.51 337.23 947.63 334.91 945.38 332.86C938.21 326.33 933.2 316.05 933.94 306.05C934.04 304.73 934.82 303.64 935.11 302.37C935.36 301.32 935.09 300.22 935.28 299.16C935.94 295.39 939.35 291.55 942.31 289.46C945.59 287.15 949.39 285.12 953.54 285.27Z"/>
<path id="navy-4" fill-rule="evenodd" d="M826.95 364.12C826.52 366.24 825.1 368.01 823.85 369.7C817.58 378.25 807.33 380.96 797.85 375.38C789.46 370.43 783.02 355.01 784.59 345.56C787.02 331.01 801.32 319.08 815.41 329.18C826.73 337.29 829.56 351.4 826.95 364.12Z"/>
<path id="navy-5" fill-rule="evenodd" d="M912.61 363.59C909.33 359.16 904.71 355.69 901 351.57C897.26 347.41 889.23 338.33 897.23 333.97C898.52 333.27 900.51 332.08 902.04 332.28C906.58 332.87 908.98 338.34 911.66 341.3C915.3 345.34 926.98 354.64 928.53 358.98C929.34 361.26 928.94 364.92 928.77 367.33C928.32 373.87 915.23 384.02 909.41 385.93C904.91 387.41 899.17 383.39 899.49 378.56C899.87 372.89 909.25 371.17 912.61 363.59Z"/>
<path id="navy-6" fill-rule="evenodd" d="M660.76 444.18C655.91 444.1 647.47 430.68 640.73 427.63C632.86 424.07 622.54 427.96 619.42 426.54C606.97 420.9 619.07 410.54 627.44 409.49C640.83 407.82 655.99 417.61 664.08 427.64C665.76 429.72 667.93 432.79 668.54 435.43C669.49 439.59 664.83 444.24 660.76 444.18Z"/>
<path id="navy-7" fill-rule="evenodd" d="M856.57 414.68C858.49 414.65 866.18 416.96 868.41 417.18C870.95 417.43 873.62 416.82 876.13 417.24C877.63 417.48 878.92 418.44 880.44 418.48C883.83 418.57 886.22 417.35 889.25 417.2C891.7 417.07 894.6 417.71 896.97 417.09C900.29 416.22 903.47 415.06 906.88 414.59C913.16 413.71 920.26 407.11 926.27 411.68C934.45 417.89 929.71 422.92 928.81 430.77C928.43 434.03 926.74 436.74 925.28 439.65C919.83 450.53 912.72 458.56 901.74 464.04C899.07 465.37 895.58 467.13 892.57 467.4C874.68 469.04 858.88 461.59 850.67 445.13C846.76 437.29 841.07 425.86 848.55 418.38C850.34 416.6 853.93 414.72 856.57 414.68Z"/>
</g>
<g id="layer-green" fill="#01be9e">
<path id="green-1" fill-rule="evenodd" d="M697.74 1041.81C700.1 1038.01 704.75 1037.5 708.85 1036.56C711.59 1035.93 714.01 1034.46 716.61 1033.48C722.62 1031.21 728.87 1029.58 734.93 1027.45C764.43 1017.07 794.33 1007.68 823.8 997.32C827.59 995.98 831.68 995.41 835.49 993.92C854.97 986.3 863.11 973.32 861.81 952.61C861.62 949.56 856.28 937.71 856.76 936.22C857.05 935.35 869.39 926.52 871.68 924.23C881.13 914.78 886.73 906.22 888.91 892.9C889.11 891.62 889.93 890.53 890.11 889.24C890.93 883.45 888.31 872.76 885.93 867.39C885.07 865.46 883.11 864.07 882.78 861.84C882.36 859.05 888.16 847.19 887.54 842.76C887.35 841.47 886.54 840.38 886.33 839.1C886.12 837.83 886.39 836.51 886.27 835.24C885.88 831.04 882.98 825.8 880.8 822.24C878.93 819.18 875.06 817.38 874.17 813.69C873.37 810.4 876.45 806.5 877.17 803.32C877.57 801.55 878.3 799.52 878.53 797.74C879.15 792.81 875.91 781.63 872.6 777.8C864.73 768.7 855.7 765.99 843.84 767.51C839.52 768.06 831.16 773.92 827.5 771.82C823.96 769.8 826.66 765.72 827.01 762.98C827.63 758.16 825.52 751.06 822.6 747.16C819.1 742.5 812.19 739.15 806.41 739.15C803.15 739.15 798.21 742.41 795.33 739.12C794.9 738.63 788.93 720.34 788.04 717.93C782.79 703.7 777.11 689.56 772 675.27C770.86 672.07 770.15 668.62 768.8 665.5C766.96 661.25 760.16 645.91 761.64 641.94C763.58 636.68 775.92 648.06 779.12 649.67C788.09 654.17 800.38 659.92 810.12 661.83C811.18 662.03 812.27 661.74 813.33 661.99C814.57 662.28 815.73 663.06 817 663.16C819.77 663.38 822.59 663.03 825.37 663.17C826.91 663.25 828.18 664.24 829.67 664.43C832.35 664.77 836.02 664.84 838.68 664.42C839.95 664.22 841.07 663.42 842.35 663.21C844.03 662.94 845.8 663.32 847.5 663.15C848.76 663.03 849.91 662.23 851.16 661.97C852.22 661.75 853.32 662.04 854.37 661.8C865.13 659.37 876.98 654.12 885.72 647.42C888.54 645.26 890.97 642.22 893.49 639.71C899.1 634.1 904.15 627.97 907.51 620.71C909.22 617.01 913.06 605.52 913.32 601.71C913.54 598.51 913.2 595.27 913.52 592.09C915.29 591.98 916.63 591.33 918.36 590.84C920.52 590.23 923.8 590.49 926.05 590.41C933.58 590.14 941.73 589.74 949.23 590.42C950.75 590.56 952.01 591.58 953.53 591.68C956.47 591.89 959.66 591.21 962.55 591.77C981.4 595.42 995.36 598.7 1013.28 606.57C1016.83 608.12 1020.43 609.3 1023.86 611.23C1029.25 614.25 1034.32 617.93 1039.66 621.04C1041.26 621.97 1043.43 622.44 1044.85 623.6C1045.98 624.53 1046.76 625.92 1047.89 626.91C1050.54 629.25 1053.71 631.36 1056.58 633.44C1060.13 636.02 1063.14 639.76 1066.2 642.87C1071.38 648.15 1077.38 653.03 1082 658.82C1088.35 666.77 1094.94 674.74 1101.81 682.26C1104.72 685.44 1113.67 698.95 1116.17 700.26C1117.11 700.76 1117.05 699.92 1117.77 699.69C1119 699.29 1117.79 700.15 1118.81 700.23C1119.83 707.91 1113.21 722.46 1111.72 730.54C1109.52 742.44 1104.72 753.85 1102.58 765.77C1102.13 768.27 1100.56 770.57 1100.12 773.08C1099.09 778.91 1097.83 785.48 1095.9 791.09C1094.45 795.28 1087.63 818.63 1093.44 820.22C1096.79 821.14 1099.6 817.47 1100.03 814.58C1100.88 808.84 1105.02 789.79 1106.92 784.76C1109.31 778.45 1110.09 771.45 1111.81 764.94C1113.22 759.64 1115.77 754.43 1116.75 749.03C1117.49 744.9 1118.45 740.64 1119.55 736.59C1120.49 733.08 1122.15 729.75 1123.08 726.25C1125.97 715.43 1127.85 704.08 1131.84 693.55C1134.1 687.59 1137.24 668 1142.08 664.89C1146.64 661.97 1153.06 672.72 1156.46 674.77C1158.31 675.88 1159.76 677.5 1161.58 678.62C1173.49 685.88 1186.38 691.66 1200.31 692.8C1201.82 692.92 1203.12 693.94 1204.61 694.06C1223.93 695.69 1247.49 692.12 1263.61 680.79C1265.92 679.17 1273.83 674.55 1275 672.58C1279.5 665.04 1271.18 655.46 1277.39 648.69C1281.44 651.23 1287.93 654.4 1290.76 659.03C1292.36 661.66 1293.35 666.46 1293.84 669.46C1294.15 671.35 1293.55 673.37 1294 675.25C1294.3 676.51 1295.07 677.59 1295.16 678.91C1295.3 681.01 1294.84 683.28 1295.24 685.35C1295.49 686.62 1296.3 687.71 1296.44 689.01C1296.71 691.55 1296.12 694.2 1296.5 696.73C1296.69 698.02 1297.5 699.11 1297.7 700.39C1298.1 702.92 1297.51 705.58 1297.76 708.12C1297.91 709.63 1298.93 710.89 1299.03 712.42C1299.23 715.63 1298.84 718.87 1299.04 722.08C1299.14 723.61 1300.15 724.87 1300.3 726.38C1300.82 731.46 1299.59 736.79 1300.36 741.83C1300.59 743.34 1301.56 744.58 1301.61 746.14C1301.96 757.7 1301.61 769.34 1301.61 780.91C1301.61 790.82 1302.63 801.33 1301.59 811.18C1301.45 812.48 1300.65 813.57 1300.4 814.84C1299.75 818.13 1300.54 821.8 1300.31 825.14C1300.21 826.67 1299.19 827.92 1299.05 829.44C1298.81 831.98 1299.4 834.65 1298.99 837.16C1298.78 838.44 1297.97 839.54 1297.78 840.82C1297.54 842.52 1297.91 844.27 1297.72 845.97C1297.36 849.26 1296.05 852.65 1295.28 855.87C1295.03 856.93 1295.3 858.02 1295.12 859.08C1294.64 861.99 1293.2 864.78 1292.66 867.69C1289.45 884.96 1282.2 904.56 1272.44 919.26C1270.67 921.93 1269.48 924.97 1267.53 927.55C1251.63 948.61 1231.05 966.7 1205.77 975.81C1201.59 977.32 1197.53 979.6 1193.14 980.53C1189.23 981.35 1185.26 982.53 1181.33 983.15C1179.85 983.39 1178.3 982.96 1176.83 983.32C1175.57 983.62 1174.48 984.39 1173.16 984.47C1163.76 985.09 1153.59 985.04 1144.18 984.47C1142.65 984.38 1141.4 983.37 1139.88 983.21C1138.19 983.04 1136.42 983.41 1134.73 983.15C1133.45 982.96 1132.36 982.14 1131.07 981.95C1115.5 979.58 1099.19 973.86 1084.91 966.92C1082.36 965.68 1080.18 963.98 1077.72 962.69C1065.09 956.03 1051.52 948.95 1041.01 939.64C1042.37 937.99 1044.62 936.19 1045.57 934.27C1048.03 929.25 1049.21 916.96 1049.86 911.14C1050.01 909.84 1050.82 908.75 1051.06 907.48C1051.34 906 1050.9 904.45 1051.22 902.98C1051.49 901.72 1052.29 900.62 1052.4 899.32C1052.7 895.94 1051.9 892.36 1052.46 889.01C1052.68 887.74 1053.49 886.64 1053.67 885.36C1054.23 881.22 1053.7 876.65 1053.7 872.48C1053.7 844.49 1049.35 818.72 1041.04 792.11C1038.26 783.19 1032.13 764.27 1028.23 756.46C1026.49 752.98 1025.76 746.24 1020.38 746.89C1018.77 747.09 1016.31 749.85 1016.42 751.52C1016.57 753.91 1020.77 762.24 1021.79 765.26C1027.21 781.32 1034 796.74 1037.02 813.42C1037.55 816.33 1038.98 819.12 1039.48 822.03C1040.1 825.58 1040.23 829.23 1040.89 832.76C1041.13 834.04 1041.94 835.13 1042.09 836.42C1042.29 838.12 1041.91 839.88 1042.15 841.57C1042.32 842.86 1043.14 843.96 1043.35 845.23C1043.91 848.58 1043.11 852.16 1043.41 855.54C1043.55 857.05 1044.57 858.31 1044.68 859.84C1045.14 866.31 1045.04 873.32 1044.68 879.8C1044.6 881.33 1043.59 882.59 1043.42 884.1C1042.95 888.34 1043.97 892.76 1043.36 896.98C1043.18 898.26 1042.36 899.36 1042.16 900.64C1041.82 902.74 1042.3 904.96 1042.1 907.08C1041.97 908.38 1041.17 909.47 1040.91 910.74C1040.24 913.99 1040 918.11 1039.5 921.47C1039.04 924.55 1037.16 927.61 1036.97 930.72C1036.82 933.17 1037.34 935.34 1037.81 937.64C1037.19 937.81 1036.04 938 1035.63 938.58C1032.39 943.17 1031.54 953.92 1029.47 959.44C1026.47 967.47 1024.76 975.97 1021.75 983.91C1019.11 990.87 1015.76 997.71 1013.41 1004.77C1011.86 1009.41 1007.6 1021.41 1003.55 1024.02C996.44 1028.59 984.71 1029.96 976.5 1030.87C975.21 1031.01 974.11 1031.82 972.84 1032.06C970.54 1032.5 968.07 1031.73 965.77 1032.22C964.51 1032.49 963.41 1033.29 962.11 1033.41C959.57 1033.63 956.9 1033.05 954.38 1033.47C953.1 1033.68 952.01 1034.49 950.72 1034.67C947.76 1035.08 944.68 1034.39 941.71 1034.73C940.2 1034.91 938.95 1035.91 937.41 1035.99C934.2 1036.15 930.95 1035.77 927.75 1036C926.23 1036.12 924.96 1037.14 923.45 1037.27C919.66 1037.6 915.61 1036.69 911.86 1037.33C910.58 1037.55 909.49 1038.37 908.2 1038.54C903.55 1039.16 898.69 1038.03 894.03 1038.6C892.52 1038.78 891.27 1039.78 889.73 1039.85C882.25 1040.2 874.66 1039.28 867.19 1039.87C865.67 1039.99 864.41 1041.01 862.89 1041.13C854.15 1041.84 845.25 1040.76 836.49 1041.15C834.9 1041.22 833.61 1042.28 832.04 1042.42C825.3 1043.04 818.21 1042.43 811.44 1042.43C796.41 1042.43 781.38 1042.43 766.36 1042.43C751.76 1042.43 737.16 1042.43 722.57 1042.43C714.48 1042.43 705.39 1043.25 697.74 1041.81Z"/>
<path id="green-2" fill-rule="evenodd" d="M546.22 795.49C545.17 800.75 540.99 805.79 537.34 809.44C518.59 828.19 485.47 821.58 479.22 794.72C478.28 790.67 477.31 786.33 478.11 782.04C486.34 738 555.96 746.48 546.22 795.49ZM524.65 772.73C519.34 774.09 517.47 788.75 512.5 792.35C507.35 796.08 501.29 786.42 497.5 790.76C498.59 793.77 511.33 801.2 513.81 799.15C517.09 796.43 519.18 788.23 521.18 784.23C522.85 780.91 526.7 776.07 524.65 772.73Z"/>
<path id="green-3" fill-rule="evenodd" d="M412.23 761.31C413.61 761.97 414.72 762.62 415.69 763.97C418.45 767.79 423.61 785.57 425.55 791.11C435.21 818.61 444.04 846.32 453.93 873.65C456.9 881.87 460.4 890.02 462.66 898.49C463.44 901.43 466.36 904.38 464.74 907.58C463.06 910.9 457.44 909.88 454.6 910.5C450.69 911.37 446.86 913.22 443.01 914.36C426.53 919.23 411.05 926.68 395.83 934.64C393.93 935.63 392.32 937.04 390.37 938.01C387.01 939.68 369.45 950.57 370.46 954.06C373.17 963.45 382.8 952.41 387.2 950.22C392.52 947.57 397.34 943.75 402.43 940.69C412.38 934.71 426.17 929.52 437.06 925.33C445.65 922.03 454.74 920 463.31 916.65C464.72 916.1 465.74 914.82 467.19 914.43C469.05 913.94 471.08 914.57 472.97 914.26C477.2 913.56 480.97 911.3 485.18 910.5C490.57 909.47 496.14 908.99 501.5 907.78C506.06 906.75 510.47 905.01 515.06 904.08C535.24 899.95 555.37 895.89 575.47 891.22C576.94 890.88 578.49 891.35 579.96 891.06C582.87 890.49 585.65 889.13 588.57 888.6C592.11 887.96 595.77 887.91 599.31 887.19C605.74 885.88 612.24 884.68 618.65 883.32C619.9 883.06 621.02 882.28 622.31 882.13C623.59 881.97 624.91 882.26 626.17 882.07C629.66 881.54 633.19 879.79 636.71 879.53C641 879.22 647.71 879.41 650.31 883.65C650.75 884.37 650.64 885.37 650.61 886.17C650.54 887.63 649.86 888.48 648.87 889.47C644.65 893.7 642.23 888.68 637.82 888.6C636.83 888.59 635.86 889.8 635.5 890.61C628.99 905.51 630.01 923.68 630.01 939.86C630.01 942.61 631.09 944.77 631.28 947.38C631.41 949.07 631.05 950.86 631.36 952.53C631.59 953.8 632.4 954.89 632.56 956.19C634.14 969.55 639.03 986.12 645 998.37C647.65 1003.81 650.86 1008.83 653.56 1014.2C656.22 1019.51 661.9 1027.99 666.85 1031.36C668.26 1032.32 670.05 1032.71 671.39 1033.78C673 1035.08 675.22 1037.74 673.43 1039.73C671.86 1041.47 654.58 1045.51 652.72 1044.9C650.88 1044.29 649.97 1043.72 647.87 1043.72C642.52 1043.72 636.41 1042.89 631.13 1043.77C629.62 1044.02 628.4 1044.97 626.83 1045.01C612.69 1045.38 598.48 1045.01 584.33 1045.01C573.13 1045.01 551.1 1046.15 541.19 1044.98C539.68 1044.81 538.43 1043.8 536.89 1043.73C530.26 1043.39 523.54 1044.21 516.93 1043.71C515.4 1043.6 514.14 1042.58 512.63 1042.45C507.3 1041.99 501.86 1042.65 496.53 1042.43C494.98 1042.37 493.73 1041.38 492.23 1041.18C489.26 1040.79 486.18 1041.48 483.21 1041.12C481.92 1040.96 480.83 1040.15 479.55 1039.92C476.23 1039.32 472.62 1040.11 469.25 1039.85C467.94 1039.74 466.85 1038.96 465.59 1038.67C463.6 1038.22 461.2 1038.57 459.16 1038.57C458.53 1038.57 457.85 1038.62 457.23 1038.51C455.95 1038.29 454.86 1037.48 453.57 1037.31C451.03 1036.99 448.39 1037.58 445.84 1037.25C444.55 1037.09 443.46 1036.27 442.18 1036.05C439.13 1035.51 436.29 1036.41 433.3 1035.22C432.7 1034.98 432.1 1034.77 431.45 1034.72C429.34 1034.55 427.1 1035.03 425.01 1034.65C423.74 1034.41 422.65 1033.6 421.35 1033.45C419.65 1033.24 417.9 1033.61 416.2 1033.39C414.91 1033.21 413.82 1032.4 412.54 1032.18C408.57 1031.5 404.48 1031.52 400.52 1030.78C393.43 1029.45 386.45 1027.63 379.44 1025.83C354.85 1019.55 331.14 1013.97 318.78 989.21C315.93 983.5 313.65 977.41 312.6 971.12C312.32 969.44 312.7 967.66 312.54 965.97C312.41 964.45 311.39 963.19 311.28 961.67C311.11 959.3 310.89 956.27 311.34 953.95C311.58 952.68 312.39 951.58 312.53 950.29C312.77 948.16 312.29 945.96 312.59 943.85C312.78 942.56 313.59 941.47 313.8 940.19C314.04 938.71 313.61 937.16 313.96 935.69C314.83 932.13 315.98 928.78 316.21 925.15C316.3 923.84 318.15 922.02 318.64 920.67C320.78 914.81 322.42 908.87 324.88 903.13C327.15 897.86 328.91 892.27 331.08 886.96C333.17 881.84 336.08 876.92 338.55 871.97C345.39 858.28 352.8 845.16 360.48 831.99C365.94 822.62 372.74 813.86 378.63 804.75C380.58 801.73 383.2 799.06 385.37 796.19C389.35 790.91 392.88 785.27 396.86 779.99C400.83 774.72 409.33 766.66 412.23 761.31Z"/>
<path id="green-4" fill-rule="evenodd" d="M503.97 866.65C503.46 864.57 502.18 858.46 502.62 856.56C502.9 855.3 503.69 854.2 503.79 852.89C505.2 834.62 521.8 824.15 538.9 824.15C540.95 824.15 543.33 823.82 545.34 824.23C558.17 826.86 569.07 838.85 571.95 851.4C572.89 855.5 571.95 860.21 570.92 864.11C562.19 897.11 518.8 901.27 505.84 870.75C505.25 869.38 504.32 868.11 503.97 866.65ZM549.6 843.24C548.6 843.22 548.22 842.79 547.21 843.53C544.91 845.21 541.13 859.66 537.24 862.96C532.91 866.65 527.73 860.19 523.59 860.75C523.36 861.94 522.95 862.63 523.73 863.8C525.02 865.73 535.63 871.11 537.76 870.35C538.98 869.91 549.65 848.08 550.1 845.64C550.3 844.52 549.89 844.14 549.6 843.24Z"/>
</g>
<g id="layer-skin" fill="#fed8bb">
<path id="skin-1" fill-rule="evenodd" d="M762.41 643.06C756.97 637.86 755.9 630.31 753.14 623.59C749.89 615.64 747.21 607.57 744.27 599.5C742.17 593.72 737.98 586.18 736.95 580.3C736.63 578.47 736.79 576.39 736.65 574.55C741.76 574.13 744.08 565.89 745.32 561.17C746.4 557.12 746.05 554.97 746.59 551.08C746.77 549.79 747.59 548.7 747.8 547.42C748.7 541.97 746.78 527.47 745.41 522.06C744.54 518.63 744.51 511.67 740.88 509.73C735.11 506.63 728.58 504.63 722.84 501.27C715.47 496.95 708.48 491.94 701.72 486.76C699.21 484.84 688.02 473.82 686.12 473.58C683.42 473.25 678.94 477.4 676.53 478.61C671.78 480.98 666.33 483.95 661.02 484.76C659.96 484.93 658.87 484.67 657.82 484.93C656.56 485.25 655.47 486 654.15 486.08C623.37 487.98 597.76 471.34 586.4 442.73C582.08 431.83 580.46 420.59 583.11 409.03C586.46 394.4 595.47 383.29 608.79 376.61C611.72 375.14 615.05 373.29 618.32 372.8C631.64 370.8 639.96 371.58 652.35 377.82C656.54 379.93 663.89 388.87 668.68 386.51C673.5 384.14 678.1 380.23 682.51 377.16C690.23 371.79 697.9 366.38 705.2 360.48C710.87 355.9 715.83 350.6 721.31 345.83C723.57 343.85 726.16 342.35 728.29 340.2C735.05 333.37 741.77 326.47 748.69 319.8C750.28 318.27 751.17 316.32 752.6 314.73C755.46 311.55 758.55 308.58 761.61 305.6C763.18 304.06 764.08 302.1 765.51 300.53C768.23 297.55 771.87 295.54 774.67 292.54C776.73 290.32 778.18 287.73 780.28 285.55C784.77 280.89 790.53 279.89 796.47 278.67C797.73 278.41 798.83 277.6 800.13 277.48C803.96 277.12 808.42 280.87 811.13 275.81C816.55 265.67 802.44 267.31 798.04 264.87C797.85 260.32 811.38 244.66 814.51 239.4C818.44 232.78 823.28 226.72 827.33 220.18C837.7 203.42 847.45 186.38 856.31 168.71C859.98 161.38 863.09 153.93 866.72 146.6C867.92 144.17 868.39 140.21 871.82 139.75C875.06 139.32 890.99 146.38 894.71 148.06C915.52 157.45 933.68 168.5 950.83 183.57C970.24 200.63 987.38 225.93 996.84 249.97C997.71 252.16 999.13 254.12 999.92 256.35C1001.23 259.99 1001.94 263.81 1003.09 267.43C1004.5 271.87 1005.3 276.67 1006.96 280.96C1007.61 282.64 1009.33 283 1009.87 286.34C1010.11 287.82 1009.68 289.37 1010.04 290.83C1010.72 293.64 1012.17 296.57 1012.47 299.45C1012.65 301.14 1012.28 302.91 1012.53 304.6C1012.72 305.88 1013.54 306.97 1013.74 308.26C1014.13 310.78 1013.54 313.44 1013.8 315.98C1013.93 317.28 1014.73 318.38 1014.99 319.64C1015.32 321.3 1014.97 323.11 1015.08 324.79C1015.16 326.11 1015.92 327.2 1016.23 328.46C1016.88 331.1 1017.02 336.77 1016.24 339.38C1015.9 340.53 1014.66 341.71 1013.42 341.68C1013.09 341.68 1002.22 335.49 997.71 334.81C988.57 333.42 976.21 339.93 970.41 346.78C957.67 361.81 961.17 385.07 978.56 394.88C982.02 396.84 986.06 396.35 989.8 397.12C991.09 397.38 992.33 396.86 993.59 396.65C998.26 395.86 1002.72 394.92 1006.94 392.43C1008.41 391.55 1009.54 390.14 1011.05 389.33C1012.16 388.73 1013.01 388.99 1014.15 389.1C1014.49 402.5 1010.13 416.98 1004.68 429.63C987.05 470.53 960.85 496.42 920.43 515.05C918.11 516.12 915.48 516.52 913.11 517.46C909.13 519.04 905.24 520.86 901.09 521.98C898.47 522.69 895.55 522.86 892.98 523.73C891.54 524.22 889.38 524.62 888.21 525.62C887.33 526.37 887.69 527.74 886.32 527.93C884.63 528.17 882.86 527.75 881.17 527.97C879.9 528.14 878.77 528.94 877.5 529.17C874.59 529.7 871.44 529 868.49 529.24C867 529.37 865.7 530.38 864.19 530.51C855.52 531.23 846.49 530.52 837.79 530.52C833.47 530.52 828.51 531.21 824.26 530.47C822.77 530.2 821.49 529.27 819.96 529.24C818.71 529.21 817.99 529.44 816.92 529.76C816.75 535.68 826.09 544.8 830.8 548.06C832.54 549.26 833.84 551.15 835.61 552.32C845.95 559.15 856.91 566.66 869.36 569.1C875.67 570.34 881.6 569.85 887.77 570.71C888.16 573.16 889.69 575.33 890.84 577.62C896.43 588.77 904.17 589.14 914.85 592.13C917.06 601.93 912.19 617.37 906.7 625.63C904.93 628.3 903.74 631.34 901.79 633.92C899.9 636.43 897.34 638.64 895.08 640.81C883.15 652.21 876.97 656.45 861 661.46C858.81 662.15 856.57 663.35 854.31 663.75C852.27 664.12 849.37 664.93 847.44 665.09C845.74 665.23 843.96 664.86 842.29 665.16C838.05 665.91 833.94 667.08 829.47 666.34C828.19 666.13 827.1 665.32 825.81 665.13C820.57 664.4 815.74 664.98 809.93 663.72C801.55 661.91 782.82 655.19 776.1 650.07C774.5 648.85 766.35 642.73 765.11 642.3C764.28 642.02 762.97 642.77 762.41 643.06ZM965.16 242.6C971.45 241.82 970 233.4 964.87 230.18C953.66 223.11 939.58 223.43 928.03 229.22C925.31 230.59 918.18 236.47 917.86 239.56C917.68 241.26 918.35 242.4 919.5 243.55C924.89 248.94 933.63 238.47 940.35 237.57C945.79 236.85 951.79 237.35 956.89 239.13C959.32 239.98 962.52 242.93 965.16 242.6ZM953.22 287.18C946.39 287.21 939.86 292.43 937.53 298.71C936.99 300.19 937.39 301.68 937 303.16C936.36 305.63 935.67 307.44 935.88 310.08C935.98 311.39 936.77 312.48 937.05 313.75C938.96 322.23 943.19 332.4 952.46 335.2C954.75 335.89 957.79 335.44 960.18 335.41C965.15 335.36 970.8 329.17 972.64 324.95C973.19 323.69 973.04 322.46 973.4 321.18C977.14 308.1 969.43 287.12 953.22 287.18ZM820.03 371.87C829.44 363.16 826.92 342.77 818.27 334.33C811.95 328.15 801.74 324.28 794.12 331.17C773.98 349.34 799.04 391.31 820.03 371.87ZM914.88 363.77C914.93 370.02 899.9 374.4 901.54 380C903.42 386.42 910 383.85 914.07 381.73C916.08 380.68 917.78 378.63 919.33 377.02C923.97 372.21 929.1 367.21 926.63 359.72C926.58 359.56 904.54 335.54 903.46 334.78C899.48 331.99 895.46 337.77 895.98 341.3C896.85 347.16 914.85 360.53 914.88 363.77ZM769.59 448.05C773.61 448.81 777.27 447.59 781.07 446.88C817.11 440.11 812.67 389.01 780.1 383.75C775.32 382.97 770.69 384.06 766.14 384.93C753.02 387.42 744.76 397.23 741.95 409.87C741.39 412.36 740.65 414.11 740.76 416.76C740.83 418.3 741.83 419.55 742.02 421.06C743.77 434.84 756.3 445.55 769.59 448.05ZM660.76 442.24C661.93 442.31 663.54 441.47 664.45 440.79C669.06 437.36 664.7 431.65 662.25 428.41C653.8 417.21 637.98 408.69 624.07 412.56C621.43 413.3 618.63 414.44 617.07 416.86C614.89 420.26 617.51 424.65 621.24 425.2C622.56 425.4 623.67 424.43 624.96 424.29C630.58 423.72 635.31 424.15 640.74 425.67C648.14 427.73 656.35 442.01 660.76 442.24ZM929.37 419.74C929.34 416.51 924.68 411.15 921.22 411.77C912.87 413.25 905.08 417.87 896.66 419.09C894.12 419.45 891.47 418.86 888.92 419.15C887.41 419.32 886.16 420.32 884.62 420.41C881.11 420.59 878.94 419.41 875.8 419.14C873.27 418.92 870.58 419.5 868.07 419.07C864.8 418.51 864.26 418.27 860.54 417.81C859.25 417.65 858.16 416.74 856.88 416.62C852.46 416.2 847.31 420.89 847.01 425.2C846.59 431.37 848.81 436.92 851.52 442.33C859.87 458.98 873.72 467.61 892.57 465.47C895.65 465.12 898.95 463.34 901.69 461.97C913.16 456.22 922.83 444.62 926.62 432.19C927.5 429.32 927.67 426.33 928.2 423.41C928.42 422.16 929.38 421.02 929.37 419.74Z"/>
<path id="skin-2" fill-rule="evenodd" d="M1248.27 338.19C1250.83 336.89 1252.16 336.9 1254.48 338.36C1252.17 339.94 1250.37 340.03 1248.27 338.19Z"/>
<path id="skin-3" fill-rule="evenodd" d="M1149.19 670.03C1152.17 664.74 1152.25 658.49 1152.88 652.33C1153.04 650.81 1154.05 649.56 1154.15 648.03C1154.27 645.93 1153.81 643.65 1154.24 641.59C1155.51 635.36 1156.72 629.14 1157.94 622.89C1158.31 621 1157.71 618.99 1158.1 617.1C1158.88 613.4 1160.03 609.66 1160.56 605.92C1160.8 604.23 1160.42 602.47 1160.62 600.77C1160.76 599.47 1161.57 598.38 1161.81 597.11C1162.21 595.03 1161.74 592.78 1161.89 590.67C1161.98 589.36 1162.76 588.27 1163.05 587.01C1163.31 585.91 1164.5 573.83 1164.3 573.07C1162.77 567.21 1156.97 561.99 1153.45 557.28C1148.87 551.15 1143.83 537.6 1142.61 530.02C1141.43 522.77 1141.7 515.74 1141.27 508.33C1141.17 506.59 1140.02 505.17 1139.99 503.39C1139.9 497.75 1140.78 491.58 1139.95 486C1139.76 484.72 1138.94 483.63 1138.74 482.35C1138.41 480.24 1138.89 478.03 1138.68 475.91C1138.36 472.65 1137.04 469.19 1136.25 466.01C1135.99 464.95 1136.25 463.87 1136.08 462.8C1135.89 461.52 1135.07 460.43 1134.88 459.14C1134.12 454.16 1133.49 448.99 1132.06 444.13C1129.91 436.84 1125.93 426.34 1131.84 419.72C1135.53 415.57 1138.01 414.62 1143.49 414.62C1158.16 414.62 1166.52 431.98 1170.6 443.84C1171.75 447.19 1174.49 456.06 1174.75 459.27C1174.99 462.34 1174.08 465.94 1174.99 468.9C1175.7 471.21 1178.2 475.8 1181.08 473.16C1183.69 470.78 1183 463.39 1182.43 460.13C1182.16 458.63 1181.2 457.4 1181.2 455.83C1181.2 452.51 1184.29 447.58 1185.59 444.5C1194.1 424.36 1206.61 403.25 1217.08 384.05C1221.14 376.61 1224.6 368.46 1229.74 361.71C1231.93 358.84 1233.74 355.57 1236.07 352.84C1241.1 346.94 1251.2 342.2 1258.36 347.16C1264.32 351.29 1266.29 358.43 1264.82 365.39C1264.46 367.08 1263.35 368.5 1262.74 370.1C1256.77 385.73 1248.36 400.03 1240.86 415.06C1239.03 418.72 1225.71 436.84 1235.07 437.72C1238.09 438.01 1246.55 419.49 1248.61 416.37C1259.37 400.1 1268.96 382.4 1282.32 368.07C1288.18 361.78 1298.04 356.55 1306.4 360.83C1308.4 361.86 1310.21 363.8 1311.62 365.52C1317.36 372.47 1314.26 377.74 1310.68 384.88C1307.47 391.29 1303.16 397.46 1298.99 403.29C1297.15 405.86 1295.83 408.92 1294.08 411.57C1288.98 419.28 1283.47 426.56 1278.78 434.5C1276.46 438.42 1264.43 451.11 1268.9 455.15C1269.83 455.99 1272.03 456.2 1273.18 455.62C1275.54 454.45 1282.33 442.34 1284.63 439.42C1294.21 427.21 1303.09 407.7 1315.73 398.96C1319.04 396.68 1326.87 391.91 1330.99 392.82C1342.95 395.46 1347.95 404.62 1342.83 415.88C1339.75 422.64 1327.32 438.5 1322.28 445.24C1320.74 447.29 1318.61 448.88 1317.05 450.91C1314.31 454.44 1312.06 458.38 1308.89 461.59C1306.56 463.94 1298.14 474.83 1297.29 477.67C1296.93 478.86 1297.03 480.35 1297.76 481.38C1300.95 485.89 1306.77 477.03 1308.34 474.52C1312.93 467.18 1328.56 447.79 1336.76 445.58C1338.86 445.02 1341.34 443.57 1343.55 443.65C1348.83 443.86 1355.51 448.31 1356.31 453.82C1356.6 455.84 1356.7 458.92 1356.2 460.89C1354.34 468.22 1338.82 486.43 1333.7 493.53C1332.69 494.91 1332.31 496.7 1331.27 498.06C1324.38 507.15 1318.32 516.54 1312.15 526.13C1307.41 533.49 1301.94 540.45 1297.43 547.94C1296.65 549.22 1296.2 550.71 1295.36 551.95C1290.7 558.82 1285.87 565.58 1281.22 572.53C1277.13 578.63 1270.97 582.95 1266.73 588.83C1264.51 591.91 1264.11 597.66 1265.06 601.29C1265.38 602.55 1266.12 603.64 1266.19 604.96C1266.44 609.92 1266.24 613.43 1267.37 618.29C1268.3 622.27 1267.32 627.08 1267.49 631.16C1267.55 632.7 1268.54 633.95 1268.74 635.46C1269.3 639.69 1268.28 644.1 1268.8 648.34C1268.96 649.63 1269.77 650.72 1270 652C1270.66 655.63 1270.06 659.89 1270.06 663.58C1270.06 666.05 1271.42 677.1 1271.27 677.54C1270.95 678.45 1269.93 678.49 1269.25 678.99C1260.9 685.09 1252.39 689.39 1242.4 692.3C1211.63 701.27 1171.52 694.65 1149.19 670.03Z"/>
<path id="skin-4" fill-rule="evenodd" d="M1272.24 360.98C1274.07 362.69 1275.47 363.01 1277.98 362.8C1276.62 372.15 1265.22 367.11 1272.24 360.98Z"/>
<path id="skin-5" fill-rule="evenodd" d="M1131.8 483.97C1130.91 482.09 1130.62 481.12 1131.06 479.11C1133.57 480.49 1133.75 481.98 1131.8 483.97Z"/>
<path id="skin-6" fill-rule="evenodd" d="M1133.1 503.29C1131.28 499.86 1131.5 494.41 1132.35 490.69C1133.15 491.11 1133.91 491.03 1134.36 492.09C1134.77 493.04 1134.75 501.72 1134.26 502.5C1132.77 504.85 1134.6 501.77 1133.1 503.29Z"/>
<path id="skin-7" fill-rule="evenodd" d="M1134.37 523.89C1133.21 521.67 1133.1 520.13 1133.64 517.74C1136.44 519.22 1136.45 521.78 1134.37 523.89Z"/>
<path id="skin-8" fill-rule="evenodd" d="M792.45 802.24C795.22 802.74 802.93 795.28 805.8 793.73C820.14 785.94 844.66 766.68 861.64 776C866.03 778.41 870.87 784.7 872.01 789.57C872.52 791.75 872.12 794.41 872.12 796.64C872.12 798.48 872.43 800.65 871.9 802.41C870.67 806.47 865.83 812.71 867.77 816.73C868.98 819.24 871.62 820.52 873.56 822.53C878.75 827.9 881.58 837.8 881.13 845.07C880.75 851.16 875.86 856.04 875.21 861.95C874.73 866.28 879.78 868.22 880.93 871.69C884.24 881.67 884.63 891.09 880.66 901.01C875.34 914.33 861.76 924.9 849.72 931.76C845.39 934.23 840.73 935.79 836.27 937.86C826.76 942.26 817.33 947.02 807.6 950.87C797.84 954.73 787.92 958.05 778.31 962.31C769.24 966.34 761.07 968.32 751.54 973.14C742.07 977.92 732.7 983.48 723.35 988.52C712.23 994.51 700.65 999.86 689.45 1005.47C685.83 1007.28 669.26 1015.8 666.25 1014.85C660.58 1013.08 653.59 993.85 651.51 988.31C647.39 977.35 644.19 966.57 641.7 955.26C641.37 953.79 641.81 952.24 641.53 950.76C641.3 949.49 640.49 948.4 640.34 947.1C640.08 944.98 640.56 942.78 640.28 940.66C640.1 939.37 639.29 938.28 639.07 937.01C638.18 931.77 638.57 923.05 639.03 917.69C639.17 916.17 640.19 914.91 640.3 913.39C640.48 910.87 639.91 908.15 640.38 905.67C640.78 903.53 642.4 896.1 643.69 894.68C643.84 894.52 658.68 888.99 660.39 888.3C670.3 884.3 693.81 873.82 701.64 867.58C708.17 862.37 720.45 836.24 725.59 827.48C738.24 805.88 752.42 785.93 770.15 768.19C778.05 760.29 792.74 746.11 804.29 745.59C820.87 744.85 824.39 761.92 816.19 773.6C807.39 786.12 803.05 784.56 794.03 793.58C792.21 795.39 786.45 801.16 792.45 802.24Z"/>
</g>
<g id="layer-white" fill="#ffffff">
<path id="white-1" fill-rule="evenodd" d="M272.3 191.76C274.92 191.47 277.41 195.72 279.43 196.97C285.31 200.64 296.07 211.94 301.92 217.07C306.86 221.4 312.06 225.66 317.17 229.8C319.66 231.82 321.51 234.63 324.05 236.59C326.65 238.59 335.17 245.1 335.96 248.14C336.59 250.53 324.51 262.45 322.24 264.72C315.72 271.24 297.87 291.23 291.82 295.36C287.79 298.1 276.63 302.12 271.84 302.56C251.3 304.43 233.52 289.79 226.73 271.12C223.85 263.2 224.77 252.34 227.13 244.48C230.95 231.75 242.03 224.75 249.88 214.67C254.62 208.58 260.81 202.84 266.27 197.38C267.82 195.83 269.95 192.02 272.3 191.76Z"/>
<path id="white-2" fill-rule="evenodd" d="M156.45 410.89C155.41 406.9 164.58 397.59 167.37 394.8C173.02 389.14 177.39 381.9 182.71 375.93C186.95 371.18 191.68 366.62 195.45 361.5C198.13 357.86 203.91 348.57 208.46 347.76C212.45 347.05 220.52 356.68 223.7 359.01C229.89 363.54 235.58 368.77 241.21 374.02C242.72 375.42 244.69 376.58 246.32 377.89C253.49 383.65 257.9 391.73 260.24 400.47C260.63 401.93 260.24 403.48 260.43 404.97C260.78 407.65 261.92 409.62 261.68 412.49C261.57 413.8 260.77 414.89 260.5 416.16C259.89 418.93 259.76 421.49 258.74 424.26C253.52 438.36 238.98 449.03 224.65 451.89C222.43 452.33 219.82 451.96 217.57 451.96C214.92 451.96 212.34 452.46 209.74 451.86C198.07 449.18 188.89 440.73 180.24 433.12C178.8 431.86 177.63 430.22 176.1 429.06C172.02 425.97 157.63 415.4 156.45 410.89Z"/>
<path id="white-3" fill-rule="evenodd" d="M196.53 626.52C194.92 623.26 198.83 618.25 200.45 615.02C204.01 607.9 207.99 601.07 212.64 594.62C215.11 591.19 218.47 588.21 220.74 584.68C226.68 575.4 237.56 567.21 245.68 559.88C275.09 533.32 322.94 517.95 359.71 503.69C368.29 500.36 388.61 490.64 395.92 485.56C397.67 484.34 407.65 477.57 409 477.46C409.83 477.39 410.07 477.93 410.72 478.22C411.96 482.01 408.1 482.83 405.74 485.15C399.8 490.98 393.09 496.05 386.29 500.8C362.92 517.15 338.16 528.93 311.72 539.34C305.98 541.6 300.45 544.75 294.78 547.15C291.94 548.35 289.67 550.26 287.01 551.67C263.94 563.85 241.82 578.29 223.84 597.31C217.48 604.03 211.04 610.43 205.12 617.53C202.51 620.68 200.63 626 196.53 626.52Z"/>
<path id="white-4" fill-rule="evenodd" d="M480.84 913.35C476.5 905.07 474.4 895.58 471.28 886.78C465.52 870.5 460.57 853.72 454.44 837.55C450.27 826.55 447.01 815.2 442.89 804.17C431.13 772.7 420.67 740.74 409.47 709.05C404.18 694.1 399.15 679.11 394.05 664.09C390.9 654.81 386.79 645.9 391.06 636.24C398.13 620.29 414.48 618.62 429.39 614.16C440.67 610.78 451.67 606.42 462.91 602.91C473.19 599.7 484.03 596.96 494.19 593.42C504.62 589.78 515.26 585.7 525.98 583.24C536.13 580.92 545.83 576.11 555.85 573.22C569.15 569.39 582.28 564.55 595.56 560.41C611.05 555.58 626.64 550.96 642.09 545.85C650.58 543.04 682.58 530.94 689.28 531.84C690.57 532.02 691.68 532.8 692.94 533.05C709.4 536.23 712.92 549.59 717.94 563.31C719.55 567.71 721.49 572.04 723.17 576.42C732.02 599.38 739.85 622.72 749.27 645.45C751.23 650.19 752.21 655.33 754.07 660.11C757.25 668.26 760.74 676.37 763.63 684.62C765.26 689.26 766.46 694.08 768.22 698.68C772.56 710.04 777.18 721.4 780.94 732.97C781.86 735.81 785.84 742.45 785.83 744.8C785.81 747.25 781.29 749.49 779.64 750.99C774.61 755.55 764.76 763.47 760.71 768.35C758.29 771.25 750.69 780.25 747.47 781.39C744.96 782.27 742.12 779.31 739.59 779.14C736.74 778.93 725.88 783.25 722.42 784.3C708.7 788.47 695.19 793.49 681.58 798C667.18 802.76 652.63 807.15 638.2 812.02C632.4 813.98 603.81 822.38 601.07 824.35C596.95 827.31 593.66 832.1 593.95 837.31C594.3 843.49 601.46 849.95 607.62 849.52C610.42 849.33 613.59 848.08 616.28 847.22C642.64 838.75 668.54 830.1 694.88 821.45C699.78 819.84 720.07 811.1 723.55 815.18C724.27 816.03 723.99 817.28 723.64 818.24C722.58 821.11 714.07 834.58 711.9 838.14C708.07 844.43 706.15 852.37 701.47 858.09C694.47 866.64 670.8 876.72 660.13 881.06C656.22 882.65 653.34 885.02 649.13 886C647.17 881.59 642.5 881.46 638.19 881.46C634.21 881.46 630.25 883.27 626.37 883.97C624.89 884.24 623.34 883.8 621.87 884.13C616.72 885.28 611.41 886.13 606.36 887.67C605.1 888.05 603.8 887.71 602.53 888C597.87 889.06 593.52 889.87 588.78 890.5C585.87 890.89 583.03 892.32 580.17 892.95C578.7 893.27 577.15 892.84 575.67 893.11C572.77 893.65 569.98 895.09 567.07 895.57C563.92 896.1 560.75 896.38 557.62 896.98C554.72 897.53 551.93 898.97 549.01 899.44C526.15 903.14 503.62 909.84 480.84 913.35ZM578.56 650.83C582.73 654.42 596.58 647.78 601.43 646.48C609.08 644.43 616.42 641.2 624.01 638.93C639.22 634.39 655.07 629.99 669.89 624.09C674.41 622.29 685.43 620.09 688.78 617.71C691.09 616.08 692.41 612.26 691.41 609.64C687.79 600.1 672.65 608.55 666.02 610.38C639.97 617.55 615.09 628.68 589.09 635.25C583.78 636.59 574.67 640.57 577.24 647.35C577.73 648.67 577.37 649.81 578.56 650.83ZM527.13 692.03C527.77 690.5 529.7 689.63 530.54 688.2C532.77 684.44 534.62 680.12 536.12 675.99C536.61 674.62 537.88 673.52 538.55 672.22C539.53 670.31 540.03 668.14 541.04 666.29C542.09 664.38 543.66 662.97 544.73 661.12C546.53 658.03 550 647.54 550.16 644.06C550.34 639.85 548.74 636.2 547.17 632.37C546.54 630.84 546.38 628.89 545.66 627.5C545.16 626.53 544.15 625.97 543.56 625.07C534.35 611.33 518.82 607.44 503.64 613.52C501.9 614.21 501.07 615.66 499.56 616.59C498.63 617.15 497.54 617.24 496.66 617.94C489.94 623.22 475.88 648.78 472.01 657.36C471.55 658.37 471.8 659.51 471.32 660.48C470.63 661.87 469.02 662.39 468.17 663.66C466.41 666.28 465.29 669.48 463.83 672.28C459.79 680.01 454.99 687.5 451.54 695.6C449.93 699.39 449.71 702.85 449.71 706.9C449.71 728.93 470.17 744.48 491.3 739.05C506.26 735.2 508.73 727.25 515.67 715.43C518.37 710.84 524.51 700.89 526.43 696.44C527.05 694.99 526.56 693.39 527.13 692.03ZM589.3 684.51C589.1 697.53 609.17 688.08 614.95 686.25C629.9 681.53 644.67 676.21 659.55 671.29C668.06 668.48 676.93 666.12 685.24 662.77C691.83 660.1 707.62 659.1 704.48 648.83C701.31 638.49 687.95 647.7 681.51 649.32C668.59 652.59 656.35 658.05 643.67 661.99C633.52 665.14 622.83 667.8 612.94 671.48C607.12 673.65 589.43 676.72 589.3 684.51ZM568.25 766.88C568.27 768.81 569.72 771.83 570.58 773.55C576.53 785.45 591.68 777.97 600.78 775.11C634.3 764.56 667.67 753.07 700.97 742.06C710.64 738.86 731.09 735.59 731.41 722.47C731.47 719.74 729.37 715.69 727.5 713.81C725.84 712.16 724.23 710.3 721.87 709.64C716.4 708.11 706.48 711.63 701.29 713.66C689.34 718.33 666.36 726.15 654.19 728.93C648.23 730.28 642.32 732.97 636.51 734.89C623.89 739.06 611.13 742.96 598.65 747.51C593.01 749.56 577.76 753.07 573.8 756.27C571.25 758.33 570.21 760.8 569.24 763.83C568.93 764.81 568.24 765.83 568.25 766.88ZM544.24 795.02C554.5 748.81 486.47 740.69 480.01 782.83C479.39 786.88 480.43 790.41 481.19 794.23C486.18 819.43 518.5 825.73 535.63 808.37C539.2 804.75 543.09 800.21 544.24 795.02ZM504.45 857.99C504.3 860.95 506.68 867.4 507.83 870.25C518.11 895.78 554 895.73 566.41 870.84C568.04 867.58 569.84 863.61 570.11 859.95C571.16 845.8 559.64 828.08 545.04 826.11C526.21 823.57 507.83 833.71 505.71 853.68C505.55 855.19 504.53 856.45 504.45 857.99Z"/>
<path id="white-5" fill-rule="evenodd" d="M510.82 791.14C514.76 789.49 518.3 773.24 522.15 771.05C525.31 769.26 528.25 772.73 527.49 775.76C526.68 778.94 516.71 799.36 514.6 800.91C511.56 803.14 491.05 794.19 496.42 788.55C500.7 784.06 506.24 793.06 510.82 791.14Z"/>
<path id="white-6" fill-rule="evenodd" d="M212.13 779.82C213.07 772.58 217.2 777.18 220.43 779.23C219.08 784.23 214.91 782.49 212.13 779.82Z"/>
<path id="white-7" fill-rule="evenodd" d="M551.62 842.31C554.16 845.72 549.23 852.4 547.73 855.41C545.58 859.71 541.84 873.38 535.84 872.4C533.07 871.94 530.17 869.85 527.68 868.6C525.51 867.52 522.71 866.41 521.58 864.06C521.04 862.93 521.03 861.45 521.54 860.3C524.28 854.2 531.87 864.66 535.94 861.62C539.69 858.81 542.01 847.12 544.92 843.15C546.33 841.22 549.89 840 551.62 842.31Z"/>
<path id="white-8" fill-rule="evenodd" d="M690.02 1026.59C688.37 1024.45 690.64 1020.14 691.43 1018C692.07 1016.29 691.18 1013.81 692.19 1012.33C695.31 1007.77 707.67 1004.63 712.82 1000.86C717.56 997.38 727.19 993.37 732.81 990.55C737.99 987.96 743.24 985.48 748.36 982.77C752.7 980.48 756.72 977.6 761.32 975.67C763.68 974.67 766.29 974.25 768.65 973.26C782.67 967.38 796.96 962.22 811.06 956.56C820.13 952.92 829.48 949.31 838.22 944.93C840.43 943.82 845.52 940.19 847.45 943.36C849.09 946.05 849.74 949.51 850.29 952.52C850.52 953.79 851.33 954.88 851.49 956.18C852.6 965.36 845.73 975.1 838.11 979.42C831.95 982.91 810.14 989.2 802.22 991.65C779.26 998.77 757.24 1008.13 734.11 1014.79C723.3 1017.91 712.34 1021.71 701.8 1025.64C699.14 1026.63 692.33 1029.6 690.02 1026.59Z"/>
</g>
<g id="layer-border" fill="#8fc0fd">
<path id="border-1" fill-rule="evenodd" d="M213.55 263.88C211.81 261.19 211.82 255.27 213.38 252.51C213.9 252.97 214.48 253.06 214.82 253.77C215.55 255.29 215.56 261.37 214.8 262.88C214.22 264 214.55 262.75 213.55 263.88Z"/>
<path id="border-2" fill-rule="evenodd" d="M226.75 263.88C223.53 262.01 223.52 254.38 226.68 252.41C227.73 255.6 227.57 260.54 226.75 263.88Z"/>
<path id="border-3" fill-rule="evenodd" d="M342.42 258.52C341.88 255.86 342.91 255.31 345.53 255.95C345.3 256.33 344.48 258.58 343.63 258.98C342.52 259.5 343.36 258.46 342.42 258.52Z"/>
<path id="border-4" fill-rule="evenodd" d="M465.67 917.06C463.71 914.46 462.72 910.84 461.34 907.89C462.22 907.22 463.15 906.81 463.2 905.54C463.29 903.36 459.05 894.6 458.22 891.66C454.15 877.31 447.84 863.43 443.72 849.17C443.18 847.31 441.94 845.74 441.43 843.86C438.41 832.72 433.91 821.93 430.07 811.09C426.14 799.99 422.53 788.76 418.51 777.71C417.21 774.13 416.51 770.17 414.88 766.72C414.13 765.13 412.58 764.08 411.87 762.62C411.25 761.36 411.92 759.5 411.64 758.14C410.8 754.06 408.9 749.9 407.59 745.94C405.37 739.2 402.69 732.69 400.42 726C397.53 717.5 395.18 708.73 391.97 700.36C387.29 688.16 383.57 675.63 379.19 663.31C378.04 660.06 376.22 656.37 375.7 652.96C375.14 649.26 374.89 643.08 375.79 639.45C379.55 624.43 388.39 612.88 403.46 607.49C405.82 606.64 408.45 606.4 410.88 605.55C417.93 603.07 425.04 600.48 432.2 598.34C436.04 597.2 440.09 596.51 443.87 594.93C453.99 590.72 471.74 585.09 482.37 582.57C493.3 579.97 503.97 575.19 514.77 572.2C524.63 569.47 534.3 565.6 544.01 562.36C554.21 558.95 564.91 555.73 575.29 552.89C594.36 547.65 615.14 539.27 634.51 533.58C647.89 529.64 679.72 516.92 691.77 518.31C699.25 519.17 707.82 523.52 713.94 527.79C724.13 534.89 729.66 556.74 734.13 568.07C735.24 570.89 737.38 572.85 738.48 575.09C739.15 576.46 739.41 582.11 740.67 585.05C746.91 599.54 751.86 614.72 757.2 629.57C758.23 632.45 759.44 635.78 760.93 638.45C761.55 639.58 763.33 640.83 763.55 642.08C763.72 643.08 763.17 644.19 763.34 645.27C764.16 650.42 767.4 655.37 769.2 660.2C769.51 661.04 769.28 661.9 769.56 662.74C772.54 671.6 776.56 680.24 779.71 689.07C784.32 701.99 789.18 714.77 793.85 727.64C795.22 731.41 796.09 736.4 797.97 739.36C795.19 742.23 788.01 746.14 784.08 746.76C778.71 731.87 772.14 714.91 766.26 699.26C764.53 694.65 763.33 689.84 761.68 685.2C758.73 676.96 755.24 668.87 752.12 660.69C750.36 656.09 749.16 651.27 747.53 646.63C746.26 643.01 744.32 639.6 743.02 635.99C738.12 622.28 733.06 608.65 727.7 595.13C723.13 583.61 719.12 571.81 714.77 560.22C712.3 553.66 710.27 545.1 704.47 540.48C700.53 537.35 693.8 533.92 688.74 533.74C680.36 533.46 648.75 545.77 638.55 548.97C601.22 560.69 563.82 572.29 526.74 584.96C524.36 585.77 521.75 586.02 519.32 586.9C503 592.82 486.41 597.8 469.88 603.05C465.77 604.35 461.65 605.15 457.61 606.71C447.39 610.64 436.45 614.37 425.9 617.28C417.71 619.53 408.45 621.13 401.22 625.96C397.18 628.66 394.19 633.17 392.67 637.75C389.27 648 393.1 654.04 396.06 663.71C401.09 680.08 407.1 696.15 412.71 712.34C423.28 742.88 434.44 773.24 444.91 803.8C450.74 820.84 456.25 837.93 462.27 854.9C465.48 863.95 467.87 873.42 471.43 882.33C473.75 888.14 481.64 908.18 482.22 913.07C476.01 916.57 470.53 915.05 465.67 917.06Z"/>
<path id="border-5" fill-rule="evenodd" d="M588.97 633.7C590.88 633.19 593.17 632.72 595.07 632.66C594.95 637.12 590.52 637.93 588.97 633.7Z"/>
<path id="border-6" fill-rule="evenodd" d="M658.15 1042.9C661.06 1041.97 663.96 1040.5 667.12 1039.92C668.37 1039.69 669.75 1040.16 670.91 1039.5C671.98 1038.9 672.01 1037.86 672.24 1036.83C683.68 1035.67 683.28 1031.07 690.48 1024.4C691.85 1025.46 693.37 1025.87 695.51 1025.68C700.57 1025.24 719.41 1017.44 726 1015.54C750.31 1008.52 773.8 999.19 797.74 991.19C806.03 988.43 831.33 981.28 837.28 977.74C843.99 973.75 849.92 965.43 849.58 957.24C849.51 955.7 848.52 954.45 848.32 952.94C847.84 949.24 846.49 945.05 843.97 943.1C847.19 939.53 853.88 936.31 858.56 935.47C858.76 937.58 860.22 939.47 860.93 941.74C864.15 952.03 865.95 964.82 860.72 974.93C855.54 984.94 846.63 991.5 836.28 995.61C832.49 997.12 828.34 997.65 824.59 998.99C805.24 1005.9 785.71 1012.4 766.22 1018.97C757.72 1021.84 748.95 1024.2 740.58 1027.42C730.43 1031.34 719.91 1034.68 709.66 1038.26C707.27 1039.09 704.64 1039.21 702.25 1040.21C695.23 1043.14 686.47 1047.97 678.89 1048.85C675.64 1049.22 671.81 1050.63 668.49 1049.78C667.66 1049.57 667.07 1048.87 666.2 1048.66C661.65 1047.58 658.78 1049.06 658.15 1042.9Z"/>
</g>
<g id="layer-pblue" fill="#b0d2fd">
<path id="pblue-1" fill-rule="evenodd" d="M342.92 120.55C345.49 119.25 346.81 119.26 349.13 120.72C346.82 122.29 345.02 122.38 342.92 120.55Z"/>
<path id="pblue-2" fill-rule="evenodd" d="M265.74 314.41C268.1 312.78 269.94 312.66 271.7 314.75C269.16 315.97 267.94 315.87 265.74 314.41Z"/>
<path id="pblue-3" fill-rule="evenodd" d="M592.51 634.64C595.19 629.78 610.78 626.43 616.36 625.05C619.41 624.29 622.29 622.45 625.34 621.53C641 616.8 657.02 612.09 672.4 606.28C678.97 603.79 691.61 599.65 693.68 610.07C695.83 620.93 677.22 623.41 669.91 626.09C655.83 631.25 641.38 635.49 627.19 640.33C621.01 642.45 614.4 643.88 608.17 646.14C600.38 648.98 587.8 654.82 579.63 653.46C574.51 652.61 573.8 644.81 575.72 641.17C577.21 638.36 587.04 632.8 589.97 633.25C590.64 633.35 591.95 634.37 592.51 634.64Z"/>
<path id="pblue-4" fill-rule="evenodd" d="M587.2 684.37C587.39 675.23 605.23 672.32 611.91 669.9C614.93 668.8 618.09 668.41 621.14 667.25C635.54 661.75 650.44 657.64 664.97 652.53C671.21 650.34 677.81 648.86 683.87 646.3C684.66 645.96 685.56 646.12 686.38 645.82C694.37 642.83 706.05 637.5 707.21 651.4C707.95 660.28 688.96 663.12 682.65 665.53C658.25 674.87 632.67 681.1 608.26 690.43C602.05 692.8 594.99 695.64 589.6 690.21C588.39 688.99 587.17 686.12 587.2 684.37Z"/>
<path id="pblue-5" fill-rule="evenodd" d="M763.17 668.35C762.14 665.1 763.91 660.59 767.79 663.4C766.8 666.02 765.72 667.5 763.17 668.35Z"/>
<path id="pblue-6" fill-rule="evenodd" d="M733.62 722.32C733.64 723.57 732.77 724.8 732.45 725.99C728.96 739.14 710.95 739.89 700.39 744.21C688.92 748.92 676.6 751.4 664.9 755.59C652.18 760.14 639.24 764.09 626.44 768.41C616.71 771.69 607.01 775.36 597.16 778.26C593.52 779.34 586.98 781.96 583.49 782.28C575.1 783.04 567.01 775.67 566.27 767.33C565.87 762.83 569.53 757.21 572.93 754.58C576.33 751.96 595.21 746.28 600.21 744.98C609.08 742.68 617.77 739.11 626.45 736.21C635.5 733.18 644.68 729.39 653.93 727.05C658.86 725.81 663.86 724.45 668.68 722.66C679.41 718.66 690.59 714.66 701.62 711.58C712.64 708.51 720.03 703.48 729.36 713.1C731.32 715.13 733.56 719.4 733.62 722.32Z"/>
<path id="pblue-7" fill-rule="evenodd" d="M748.38 779.52C748.38 783.6 744.15 787.65 741.55 790.7C735.99 797.22 728.97 812.87 722.96 817.55C722.43 817.1 721.31 815.87 720.21 815.79C715.26 815.42 697.48 822.24 692 824.35C683.21 827.73 673.86 829.82 665.04 832.81C657.12 835.49 649.33 838.38 641.49 841.19C637.73 842.53 633.58 843.09 629.78 844.57C624.19 846.75 613.32 851.14 607.64 851.5C606.12 851.59 602.86 850.65 601.42 850.07C597.96 848.68 595.45 845.83 593.82 842.56C590.02 834.94 593.39 827.39 600.17 822.69C603.17 820.61 607.55 819.77 610.99 818.63C639.42 809.25 668.18 800.45 696.63 791.04C703.94 788.62 734.26 777.3 739.43 777.2C742.54 777.14 745.45 779.74 748.38 779.52Z"/>
</g>
<g id="layer-blush" fill="#feba99">
<path id="blush-1" fill-rule="evenodd" d="M1022.01 365.54C1021.41 363.42 1021.86 361.52 1021.92 359.41C1018.37 357.37 1014.48 355.54 1013.82 350.94C1013.6 349.46 1014.01 347.9 1013.64 346.44C1013.01 344 1011.66 342.34 1011.61 339.76C1012.46 339.71 1013.45 339.19 1014.22 338.97C1014.53 336.03 1014.93 332.26 1014.35 329.32C1014.1 328.05 1013.29 326.96 1013.15 325.65C1012.98 323.95 1013.36 322.18 1013.09 320.49C1012.89 319.2 1012.07 318.11 1011.89 316.82C1011.42 313.65 1012.52 310.27 1011.27 307.23C1010.93 306.42 1010.61 305.65 1010.57 304.76C1010.48 303.08 1010.83 301.25 1010.46 299.6C1009.41 294.84 1006.6 286.8 1007.24 282.2C1010.26 282.67 1013.8 282.02 1016.8 282.72C1031.39 286.12 1042.85 304.17 1042.45 318.39C1040.92 318.36 1039.21 318.07 1037.52 318.19C1036.84 320.3 1036.85 322.14 1037.47 324.28C1039.18 324.45 1040.88 324.52 1042.46 324.91C1042.48 326.99 1043.12 329.23 1042.66 331.3C1040.2 342.47 1032.96 360.51 1022.01 365.54Z"/>
<path id="blush-2" fill-rule="evenodd" d="M1269.69 678.18C1269.33 675.76 1268.35 673.14 1268.14 670.73C1267.62 664.83 1269.06 658.53 1268.08 652.69C1267.86 651.42 1267.05 650.32 1266.87 649.03C1266.3 644.81 1267.32 640.39 1266.81 636.15C1266.63 634.64 1265.63 633.39 1265.56 631.85C1265.36 627.79 1265.85 623.67 1265.54 619.62C1265.42 618.09 1264.4 616.83 1264.27 615.31C1264.01 612.12 1264.4 608.86 1264.26 605.65C1264.19 604.11 1263.2 602.86 1263 601.35C1262.5 597.35 1262.49 592.33 1264.44 588.77C1266.78 584.51 1271.78 581.19 1274.99 577.57C1279.91 572.04 1283.43 565.14 1288.06 559.33C1289.13 557.99 1289.52 556.2 1290.48 554.79C1293.13 550.93 1295.6 546.93 1298.3 543.08C1308.89 527.99 1318.03 512.01 1329.31 497.46C1330.36 496.11 1330.75 494.32 1331.73 492.92C1333.82 489.96 1336.43 487.35 1338.49 484.37C1339.79 482.47 1340.81 480.18 1342.3 478.42C1347.44 472.33 1357.31 462.16 1354.04 453.27C1351.1 445.31 1342.51 444.63 1335.76 447.85C1334.46 448.47 1333.42 449.82 1332.29 450.7C1321.54 458.97 1318.17 466.34 1309.75 475.85C1306.49 479.53 1301.02 489.13 1295.86 482.08C1292.14 476.99 1302.52 467.65 1305.1 463.61C1309.45 456.78 1315.4 451.05 1320.31 444.64C1324.33 439.39 1327.86 433.75 1331.8 428.44C1334.15 425.27 1337.38 422.27 1339.15 418.74C1344.59 407.86 1344.86 398.47 1331.21 394.82C1327.1 393.72 1319.9 398.48 1316.58 400.66C1309.97 405.01 1289.32 434.84 1284.57 442.86C1282.11 447.03 1273.99 462.31 1267.9 456.73C1261.66 451 1272.71 439.52 1276.46 434.42C1278.32 431.9 1279.69 428.8 1281.38 426.15C1282.18 424.89 1283.39 423.89 1284.28 422.71C1289.03 416.38 1292.49 409.09 1297.03 402.67C1301.45 396.44 1305.89 389.95 1309.31 383.11C1310.71 380.32 1312.88 376.74 1313.14 373.58C1313.52 368.84 1307.22 362.62 1303.01 361.38C1295.46 359.16 1287.61 365.39 1282.86 370.42C1275.11 378.62 1254.95 408.17 1249.81 418.4C1248.36 421.3 1246.48 423.91 1245 426.74C1243.04 430.49 1239.04 441.64 1233.42 439.11C1225.66 435.62 1231.83 426.17 1234.99 421.04C1238.72 415.01 1241.7 408.64 1244.97 402.32C1251.23 390.28 1257.35 378.56 1262.48 365.97C1266.03 357.27 1259.34 345.45 1249.32 347.05C1237.87 348.88 1230.51 363.98 1225.43 373.14C1212.39 396.7 1199.09 420.28 1187.67 444.82C1186.5 447.34 1183.59 452.95 1183.22 455.49C1183.04 456.77 1183.99 457.96 1184.28 459.16C1185.31 463.25 1185.67 473.74 1180.85 475.52C1176.83 477 1173.04 471.97 1172.83 468.34C1172.67 465.43 1173.34 462.19 1172.74 459.33C1170.28 447.72 1165.45 431.26 1156.55 422.85C1150.4 417.03 1140.03 412.71 1133.62 420.53C1127.95 427.45 1132.22 436.28 1134.06 443.71C1135.8 450.71 1136.96 457.88 1138.1 464.98C1138.63 468.31 1139.92 471.56 1140.56 474.87C1140.96 476.95 1140.49 479.21 1140.64 481.31C1140.75 482.83 1141.77 484.09 1141.91 485.61C1142.42 491.35 1141.71 497.24 1141.92 503C1141.98 504.55 1142.97 505.79 1143.17 507.3C1143.81 511.95 1142.68 516.81 1143.23 521.47C1143.39 522.77 1144.2 523.86 1144.43 525.13C1144.7 526.61 1144.27 528.16 1144.59 529.63C1146.6 538.76 1150.15 548.42 1155.17 556.32C1158.45 561.5 1165.02 566.43 1166.3 572.69C1166.68 574.52 1161.92 609.82 1161.19 614.36C1160.99 615.64 1160.17 616.74 1159.99 618.02C1159.74 619.72 1160.11 621.47 1159.93 623.17C1159.78 624.47 1158.98 625.56 1158.73 626.84C1157.97 630.79 1157.99 634.89 1157.33 638.86C1157.11 640.14 1156.3 641.23 1156.12 642.52C1155.83 644.64 1156.31 646.84 1156.06 648.96C1155.88 650.47 1154.88 651.72 1154.8 653.26C1154.57 657.93 1154.25 667.91 1150.29 670.45C1147.32 669.08 1145.69 666.03 1142.22 666.33C1139.93 661 1143.22 655.03 1143.83 649.58C1143.98 648.24 1143.09 644.86 1143.76 643.84C1144.95 642.04 1146.62 642.09 1147.04 638.68C1148.61 626 1150.59 613.36 1152.25 600.69C1152.42 599.4 1153.24 598.31 1153.46 597.03C1153.78 595.14 1153.18 593.12 1153.62 591.25C1153.91 589.99 1154.69 588.9 1154.79 587.58C1154.98 585.02 1154.67 582.42 1154.8 579.85C1154.88 578.34 1156.06 577.04 1156.02 575.55C1155.96 572.66 1150.74 567.97 1148.99 565.72C1143.43 558.56 1139.7 550.31 1137.01 541.7C1136.04 538.6 1135.97 535.44 1135.43 532.28C1135.21 531 1134.4 529.91 1134.22 528.62C1133.86 525.88 1134.26 523.01 1133.84 520.28C1133.65 519.01 1132.97 517.9 1132.91 516.57C1132.57 508.89 1133.34 501.05 1132.57 493.41C1132.44 492.15 1131.72 491.01 1131.63 489.7C1131.26 484.56 1131.05 479.48 1130.29 474.41C1130.1 473.12 1129.28 472.03 1129.08 470.75C1128.23 465.2 1127.07 459.94 1125.65 454.5C1125.22 452.84 1125.45 451.04 1125.01 449.41C1122.58 440.32 1120.2 431.99 1121.34 422.38C1121.69 419.41 1124 416.16 1125.92 414.02C1133.56 405.53 1143.32 404.12 1153.95 407.84C1163.9 411.33 1168.31 420.89 1173.7 428.96C1175.67 431.9 1175.49 435.69 1178.67 437.46C1181.83 435.15 1188.14 418.05 1191.27 413.21C1195.81 406.19 1199.14 398.47 1202.84 390.97C1203.96 388.7 1205.6 386.6 1206.9 384.42C1211 377.51 1214.39 370.24 1218.82 363.14C1221.92 358.18 1227.61 348.47 1232.34 345.32C1235.02 343.53 1237.13 340.99 1240.16 339.76C1250.98 335.38 1265.29 337.48 1270.98 348.85C1275.66 358.19 1271.53 362.01 1272.56 366.05C1274.2 365.79 1272.08 366.9 1273.77 366.15C1276.02 365.16 1281.12 356.22 1290.52 352.59C1304.11 347.33 1319.72 354.52 1323.37 369C1324.68 374.2 1322.3 379.74 1322.08 384.83C1327.7 387.53 1334.75 384.47 1340.79 387.54C1351.56 393.03 1356.2 406.76 1351.21 417.79C1348.71 423.29 1344.48 427.77 1341.97 433.16C1344.56 435.69 1348.13 435.04 1351.37 436.31C1357.98 438.9 1361.84 444.16 1364.3 450.57C1364.98 452.36 1364.71 454.42 1364.71 456.31C1364.71 458.34 1365.07 460.76 1364.6 462.74C1362.11 473.19 1351.82 483.02 1345.86 491.68C1336.43 505.4 1326.75 518.99 1317.52 532.91C1312.72 540.15 1307.74 547.58 1303.23 555.01C1300.8 559.01 1298.71 563.32 1295.81 567.02C1293.25 570.29 1275.09 592.92 1274.71 594.35C1273.8 597.79 1274.08 606.82 1274.6 610.44C1274.82 611.95 1275.8 613.19 1275.85 614.74C1275.97 618.36 1275.52 622.09 1275.87 625.69C1276.02 627.21 1277.03 628.46 1277.13 629.99C1277.45 634.91 1276.85 639.89 1277.15 644.81C1277.25 646.46 1278.82 648.06 1278.54 649.71C1278.21 651.71 1277.14 652.93 1277.14 655.18C1277.14 662.26 1281.6 671.04 1273.94 675.74C1272.29 676.75 1271.38 677.75 1269.69 678.18Z"/>
<path id="blush-3" fill-rule="evenodd" d="M1010.16 391.31C1010.48 388.65 1012.51 386.22 1014.82 384.7C1016.57 389.69 1014.39 390.48 1010.16 391.31Z"/>
<path id="blush-4" fill-rule="evenodd" d="M988.24 397.92C990.31 396.8 990.99 396.82 993.01 398C990.66 399.6 990.34 399.7 988.24 397.92Z"/>
<path id="blush-5" fill-rule="evenodd" d="M887.01 526.17C887.3 528.72 887.5 533.47 886.78 536.25C886.46 537.51 885.72 538.59 885.65 539.92C885.35 545.7 885.64 551.56 885.64 557.34C885.64 562.09 888.28 567.06 887.91 571.73C877.87 575.39 855.37 567.38 846.32 561.7C842.35 559.22 838.37 556.53 834.54 553.86C832.63 552.53 831.23 550.38 829.15 549.28C824.91 547.03 812.59 533.4 815.15 528.41C816.66 525.48 822.12 528.14 824.23 528.53C826.66 528.98 829.49 528.59 831.97 528.59C842.58 528.59 853.66 529.51 864.22 528.58C865.53 528.46 866.63 527.66 867.89 527.39C870.75 526.78 874 527.46 876.92 527.3C880.78 527.07 881.55 525.72 887.01 526.17Z"/>
<path id="blush-6" fill-rule="evenodd" d="M664.85 1012.99C674.69 1012.15 685.09 1005.28 694.25 1000.4C697.93 998.44 702.17 997.02 705.97 995.12C712.86 991.66 719.57 987.67 726.4 984.25C733.26 980.83 740.56 977.79 747.14 973.87C751.2 971.45 755.16 969.01 759.52 967.06C765.16 964.54 771.34 963.13 777.07 960.83C792.78 954.51 808.43 948.28 823.88 941.32C845.93 931.38 861.08 926.23 875.98 905.72C882.61 896.6 883.28 881.98 878.86 871.93C877.28 868.35 873.19 866.7 873.1 862.19C872.99 856.12 880.34 849.08 879.17 840.83C878.98 839.54 878.17 838.45 877.96 837.17C877.75 835.87 878.05 834.63 877.6 833.35C874.54 824.63 865.68 819.39 865.07 815.21C864.56 811.65 869.17 805.31 870.08 801.42C872.42 791.37 866.68 777.24 855.35 775.88C837.09 773.69 821.86 787.26 806.81 795.31C803.12 797.28 794.53 806.52 790.46 803.46C784.92 799.3 789.73 795.12 793.16 791.66C796.68 788.13 801.05 785.84 805.2 783.21C811.17 779.42 815.63 771.56 818.2 765.16C820.72 758.87 816.16 748.85 809.25 747.58C795.71 745.11 779.4 761.34 770.84 770.29C767.33 773.95 763.12 777.21 760.04 781.26C756.34 786.13 751.73 790.57 748.29 795.64C741.09 806.25 734.1 817.07 727.54 828.08C722.16 837.13 711.24 860.62 705.08 866.95C697.44 874.81 663.43 889.52 652.02 893.91C649.32 894.95 646.04 895.55 643.9 896.74C642.88 894.88 642.22 891.31 644.18 889.54C645.12 888.7 646.52 889.7 647.97 887.77C650.05 884.98 647.81 884 652.85 882.83C654.18 882.52 665.22 877.05 667.3 876.01C676.68 871.3 694.88 864.43 700.66 855.94C705.49 848.86 711.13 835.16 715.9 826.87C724.86 811.35 735.21 796.58 745.85 782.15C746.37 781.44 746.34 780.5 746.88 779.81C750.16 775.58 769.39 757.08 773.97 753.37C777.22 750.74 780.27 747.43 783.87 745.23C786.87 743.39 790.58 742.25 793.68 740.63C794.75 740.07 795.62 738.66 796.75 738.31C797.98 737.93 799.87 738.64 801.22 738.48C802.74 738.31 803.99 737.31 805.53 737.22C810.79 736.94 818.74 740.18 822.35 744.07C832.98 755.52 826.51 765.92 828.52 770.22C832.18 770.76 839.05 766.95 843 765.76C849.35 763.86 861.78 766.12 867.2 769.9C873.97 774.63 877.95 781.66 879.25 789.53C879.76 792.64 880.85 795.02 880.46 798.34C880.11 801.41 875.73 811.16 876.1 813.02C876.81 816.67 880.87 818.59 882.72 821.57C885 825.24 887.06 829.75 888.09 833.94C888.45 835.4 888.03 836.95 888.26 838.43C888.46 839.71 889.28 840.81 889.47 842.09C889.77 844.16 888.6 849.31 888.13 851.54C887.53 854.39 884.37 858.38 884.71 861.18C884.98 863.4 887 864.82 887.85 866.73C889.33 870.02 891.65 878.65 892.06 882.15C892.54 886.28 891.48 889.63 890.84 893.54C888.57 907.29 881.41 918.42 871.01 927.68C852.91 943.79 805.94 960.72 782.09 969.9C772.18 973.7 758.8 977.35 750.37 983.72C744.8 987.92 730.84 993.62 723.93 997.08C717.21 1000.45 710.85 1004.26 704.1 1007.64C701.75 1008.82 698.55 1009.52 696.45 1010.95C695.13 1011.85 693.87 1014.52 693.37 1014.82C692.89 1015.11 692.03 1014.71 691.48 1014.84C689.72 1015.24 687.88 1016.55 686.27 1017.36C680.21 1020.4 671.53 1025.83 667.1 1018.13C665.98 1016.18 665.11 1015.29 664.85 1012.99Z"/>
</g>
<g id="layer-cheek" fill="#febea7">
<path id="cheek-1" fill-rule="evenodd" d="M1041.95 326.3C1040.24 326.39 1037.72 326.88 1036.13 326.05C1034.38 325.14 1034.37 318.11 1035.66 316.77C1038.92 313.38 1045.7 317.75 1041.95 326.3Z"/>
<path id="cheek-2" fill-rule="evenodd" d="M1024.29 359.46C1025.62 364.93 1017.86 368.63 1017.12 371.63C1015.4 378.57 1016.97 385.95 1011.38 391.37C1008.35 394.31 1004.09 396.22 1000.05 397.28C982.26 401.92 966.4 394.71 961.75 375.86C957.15 357.18 969.51 337.49 988.87 334.07C993.92 333.18 995.53 332.33 1000.75 333.91C1002.01 334.29 1003.26 334.13 1004.51 334.66C1019.95 341.21 1012.37 345.96 1017.33 354.07C1018.84 356.52 1023.59 356.58 1024.29 359.46Z"/>
<path id="cheek-3" fill-rule="evenodd" d="M769.56 449.98C754.74 447.33 742.91 436 740.04 421.41C739.79 420.14 738.98 419.04 738.85 417.74C738.5 414.41 739.62 412.02 740.08 408.9C742.03 395.66 753.25 385.36 766.11 383C770.71 382.16 775.26 381.12 780.11 381.81C793.47 383.74 805.9 396.77 808.29 409.81C811.62 427.88 798.9 445.67 781.12 448.8C777.27 449.48 773.65 450.72 769.56 449.98Z"/>
</g>
<g id="layer-dgreen" fill="#01797b">
<path id="dgreen-1" fill-rule="evenodd" d="M1145.33 643.61C1146.83 649.73 1144.12 655.81 1143.24 661.8C1143.05 663.13 1143.94 664.37 1143.8 665.59C1143.71 666.42 1142.19 667.21 1141.77 667.99C1140.2 670.87 1138.79 675.08 1138.14 678.3C1136.65 685.6 1133.85 692.63 1131.81 699.81C1129.25 708.77 1127.65 718.17 1124.96 727.08C1121.97 736.96 1118.94 746.63 1116.32 756.58C1111.7 774.1 1107.61 791.72 1103.14 809.25C1101.85 814.32 1101.89 819.79 1096.15 821.85C1094.71 822.37 1092.97 822.42 1091.72 821.41C1090.59 820.5 1089.39 819.31 1089.16 817.83C1087.77 808.99 1094.15 788.89 1096.67 779.73C1098.64 772.6 1100.46 765.26 1102.1 758.04C1103.58 751.56 1105.98 745.42 1107.21 738.89C1108.24 733.48 1110.8 728.31 1112.16 722.97C1116.24 706.93 1119 690.42 1124.79 674.79C1128.56 664.6 1128.38 654.83 1137.78 647.77C1140.36 645.83 1142.08 643.8 1145.33 643.61Z"/>
<path id="dgreen-2" fill-rule="evenodd" d="M1042.27 940.59C1033.63 938.19 1034.54 933.67 1036.21 926.31C1036.86 923.45 1037.01 920.33 1037.77 917.53C1038.31 915.54 1040.04 908.08 1040.17 906.33C1040.33 904.22 1039.86 901.98 1040.24 899.89C1040.48 898.62 1041.29 897.53 1041.44 896.23C1041.95 891.99 1040.93 887.58 1041.5 883.35C1041.68 882.06 1042.49 880.97 1042.71 879.69C1043.59 874.46 1043.22 865.73 1042.74 860.37C1042.61 858.85 1041.58 857.59 1041.48 856.07C1041.02 849.57 1041.07 843.35 1040.14 836.95C1039.96 835.67 1039.14 834.57 1038.94 833.29C1038.7 831.81 1039.13 830.26 1038.77 828.79C1034.77 812.41 1030.85 796.27 1025.07 780.26C1023.46 775.8 1022.32 771.27 1020.29 766.97C1019.09 764.45 1014.19 752.86 1014.45 750.74C1014.71 748.74 1017.54 745.78 1019.43 745.16C1025.85 743.07 1027.56 750.59 1029.52 754.53C1033.79 763.13 1040.09 781.77 1042.93 791.33C1045.89 801.29 1049.01 811.41 1050.52 821.65C1050.71 822.94 1051.53 824.03 1051.73 825.31C1052.35 829.29 1052.35 833.4 1053.14 837.34C1053.39 838.61 1054.2 839.7 1054.33 841C1054.67 844.39 1053.87 847.94 1054.39 851.3C1054.59 852.59 1055.4 853.68 1055.6 854.96C1056.41 860.45 1056.23 880.12 1055.61 885.88C1055.45 887.39 1054.44 888.65 1054.35 890.18C1054.07 895.13 1054.34 898.65 1053.18 903.51C1052.82 904.98 1053.26 906.53 1053.01 908.01C1052.8 909.29 1051.99 910.38 1051.81 911.67C1050.9 918.16 1050.19 928.98 1047.54 934.82C1046.58 936.95 1043.96 939.02 1042.27 940.59Z"/>
<path id="dgreen-3" fill-rule="evenodd" d="M645.86 890C645.34 892.18 645.43 894.14 645.06 896.25C644.45 899.76 642.55 903.24 642.25 906.76C642.04 909.29 642.62 911.98 642.19 914.49C641.96 915.77 641.15 916.86 640.98 918.15C640.28 923.58 640.28 930.77 640.98 936.19C641.15 937.49 641.96 938.58 642.19 939.86C642.59 942.16 641.82 944.65 642.35 946.93C643.41 951.52 644.2 956.04 644.85 960.7C645.94 968.53 650.46 980 653.4 987.54C657.13 997.13 660.48 1004.73 666.48 1013.14C667.91 1015.15 668.7 1018.71 671.01 1020.04C675.84 1022.82 687.42 1012.68 693.09 1013.11C695.68 1019.63 688.65 1031.9 682.88 1035.61C681.19 1036.69 679.33 1037.02 677.5 1037.72C676.05 1038.27 674.6 1038.86 673 1038.55C671.77 1038.31 671.56 1036.46 670.7 1035.64C669.28 1034.31 667.19 1033.97 665.66 1032.8C661.68 1029.75 659.09 1025.54 655.9 1021.79C653.09 1018.48 651.88 1014.2 649.49 1010.66C639.98 996.59 634.52 977.4 630.76 961.1C630.42 959.63 630.85 958.07 630.6 956.6C629.87 952.42 628.86 948.29 628.13 944.12C627 937.66 628.07 930.06 628.07 923.5C628.07 916.61 629.36 888.99 637.03 886.8C639.22 886.17 644.01 889.05 645.86 890Z"/>
<path id="dgreen-4" fill-rule="evenodd" d="M462.61 907.36C465.05 909.9 465.89 913.19 466.88 916.44C461.95 920.74 445.01 924.24 437.99 926.95C428.05 930.79 412.08 936.83 403.29 942.36C398.97 945.08 394.75 948.17 390.33 950.73C387.72 952.25 385.09 953.61 382.57 955.3C377.42 958.78 371.81 964.01 368.45 954.56C366.58 949.29 383.03 940.76 386.72 938.05C399.79 928.43 438.4 912.27 454.43 908.61C457.11 907.99 459.9 908.02 462.61 907.36Z"/>
</g>
<g id="layer-yellow" fill="#feba03">
<path id="yellow-1" fill-rule="evenodd" d="M1147.07 187.53C1146.84 181.16 1156.85 160.36 1159.55 153.25C1166.58 134.68 1174.93 116.5 1182.61 98.17C1185.91 90.29 1193.6 68.69 1197.81 62.77C1203.73 54.44 1216.62 52.47 1224.98 57.59C1234.63 63.49 1236.92 74.76 1232.93 85.07C1230.92 90.26 1228.02 95.11 1226.04 100.3C1219.41 117.69 1211.12 134.44 1204.65 151.89C1203.82 154.1 1202.4 156.07 1201.56 158.27C1198.1 167.41 1188.61 193.46 1182.99 199.72C1174.15 209.58 1156.53 208.87 1149.83 196.69C1148.79 194.8 1148.73 193.19 1148.2 191.2C1147.86 189.95 1147.12 188.86 1147.07 187.53Z"/>
<path id="yellow-2" fill-rule="evenodd" d="M1358.23 158.19C1359.96 174.46 1346.15 180.03 1335.42 187.86C1313.3 204.01 1290.82 219.59 1268.5 235.48C1260.43 241.23 1252.72 248.31 1243.56 252.39C1241.53 253.29 1239.23 252.99 1237.06 252.99C1235.19 252.99 1233.1 253.26 1231.26 252.95C1224.78 251.86 1218.21 244.9 1216.73 238.65C1213.67 225.73 1224.42 217.28 1233.97 211.46C1235.42 210.57 1236.49 209.08 1237.96 208.21C1244.81 204.15 1250.45 198.48 1257.08 194.16C1267.31 187.48 1276.65 179.67 1286.47 172.43C1293.49 167.24 1300.88 162.4 1307.81 157.08C1312.28 153.65 1323.01 144.77 1327.55 142.81C1338.35 138.12 1350.64 142.4 1355.88 152.9C1356.67 154.49 1358.04 156.39 1358.23 158.19Z"/>
<path id="yellow-3" fill-rule="evenodd" d="M1259.65 310.56C1258.02 307.78 1257.82 304.33 1257.82 301.22C1257.82 299 1257.4 296.29 1258.01 294.15C1259.7 288.16 1267.01 282.53 1272.6 280.43C1274.28 279.8 1275.97 280.2 1277.7 280.02C1279 279.88 1280.09 279.07 1281.36 278.83C1285.31 278.05 1289.41 278.06 1293.38 277.42C1297.13 276.81 1300.83 275.67 1304.56 274.96C1307.61 274.37 1314.43 274.13 1317.87 273.55C1319.15 273.34 1320.24 272.52 1321.53 272.35C1330.59 271.1 1339.52 269.53 1348.59 268.42C1349.89 268.26 1350.98 267.45 1352.25 267.22C1356.22 266.5 1360.3 266.52 1364.27 265.82C1365.55 265.59 1366.64 264.78 1367.93 264.61C1370.9 264.24 1373.22 264.41 1376.12 263.52C1378.19 262.89 1380.44 263.67 1382.53 263.19C1391.9 261.05 1403.95 260.8 1409.55 270.56C1415.51 280.95 1412.66 294.73 1401.45 300.23C1395.89 302.95 1389.17 302.33 1383.26 303.26C1379.51 303.86 1375.81 305 1372.08 305.72C1370.61 306.01 1369.05 305.57 1367.58 305.88C1363.96 306.64 1360.05 307.82 1356.4 308.34C1354.71 308.57 1352.95 308.2 1351.25 308.39C1349.95 308.54 1348.86 309.35 1347.59 309.59C1346.11 309.87 1344.56 309.44 1343.09 309.75C1338.04 310.84 1333.19 311.65 1328.05 312.26C1326.75 312.41 1325.66 313.22 1324.39 313.46C1322.5 313.81 1320.48 313.21 1318.6 313.62C1313.17 314.81 1307.8 315.44 1302.27 316.13C1300.28 316.37 1298.77 317.39 1296.68 317.39C1294.05 317.39 1292.29 318.01 1289.8 318.57C1287.92 319 1285.9 318.39 1284.01 318.73C1282.9 318.93 1281.93 319.57 1280.84 319.84C1275.07 321.29 1268.42 318.8 1264.11 315.17C1262.62 313.92 1260.64 312.26 1259.65 310.56Z"/>
<path id="yellow-4" fill-rule="evenodd" d="M91.11 360.75C89.84 353.97 88.51 345.32 89.83 338.37C93.83 317.31 111.92 295.5 134.14 292.89C135.44 292.74 136.53 291.93 137.81 291.69C141.1 291.08 149.38 291.01 152.62 291.73C172.31 296.08 182.17 306.04 196.56 319.05C205.69 327.31 215.99 334.5 225.1 342.78C230.64 347.82 236.06 352.92 241.76 357.8C256.75 370.66 270.56 380.15 273.88 401.63C274.26 404.09 273.92 406.86 273.92 409.36C273.92 412.75 274.61 417.01 273.79 420.3C268.4 441.87 251.38 460.33 229.28 464.26C227.96 464.49 226.83 465.35 225.48 465.47C221.19 465.86 215.54 466.15 211.3 465.44C191.26 462.09 181.75 449.81 166.89 437.84C151.79 425.69 137.63 412.23 122.21 400.49C119.99 398.8 118.33 396.47 116.2 394.69C104.9 385.29 98.71 379.46 93.17 365.47C92.54 363.88 91.43 362.46 91.11 360.75ZM146.65 398.91C152.16 394.15 156.01 387.86 160.78 382.41C168.56 373.53 175.91 364.43 183.55 355.46C185.34 353.37 195.73 342.41 195.38 340.51C195.11 339.04 181.12 328.12 178.98 326.26C169.98 318.43 163.34 311.35 151.08 309.06C146.04 308.12 140.62 309.24 135.8 310.22C115.47 314.36 104.78 333.53 107.17 353.42C107.94 359.79 111.89 366.25 115.25 371.53C117.6 375.21 141.72 395.02 146.65 398.91ZM208.77 349.64C205.61 349.77 203.86 354.33 202.06 356.24C196.63 362.03 187.91 372.52 183.21 378.89C181.69 380.96 179.55 382.54 177.97 384.56C173.9 389.8 169.66 394.82 165.25 399.8C163.19 402.13 158.65 406.53 158.38 409.77C158.1 413.11 169.3 420.89 171.79 423.2C176.47 427.53 181.83 431.24 186.5 435.54C199.27 447.29 206.34 451.13 224.02 450.02C225.34 449.94 226.43 449.18 227.69 448.87C241.59 445.46 255.19 433.36 258.37 418.87C258.6 417.82 258.34 416.72 258.53 415.66C258.77 414.38 259.58 413.29 259.73 411.99C260.13 408.59 256.82 395.55 255.25 392.1C250.59 381.87 239.83 375.06 231.51 368.16C228.13 365.35 211.78 349.52 208.77 349.64Z"/>
<path id="yellow-5" fill-rule="evenodd" d="M470.37 658.85C484.24 665.75 477.11 670.2 471.86 680.68C465.78 692.83 454.15 708.02 466.6 720.46C468.19 722.05 469.78 724.19 471.79 725.24C475.43 727.15 478.93 727.56 482.96 727.56C498.68 727.56 504.99 711.68 510.81 699.36C511.36 698.21 511.41 696.8 512.08 695.72C512.85 694.47 514.25 693.56 514.94 692.25C516.08 690.09 514.34 686.51 517.43 685.43C517.7 685.34 526.18 688.35 526.94 688.84C527.97 689.48 528.87 690.6 529.8 691.34C528.81 693.34 529.16 695.4 528.2 697.43C525.97 702.14 512.88 725.97 510.21 729.33C507.78 732.38 504.62 734.62 501.42 736.76C497.29 739.51 492.81 740.31 488.14 741.14C486.81 741.37 485.68 742.25 484.33 742.36C481.7 742.57 479.29 741.45 476.78 741.11C462.64 739.23 451.04 727.88 447.88 713.81C447.07 710.19 447.17 703.94 447.84 700.28C448.66 695.8 463.34 666.97 466.36 662.85C467.46 661.34 469.21 660.12 470.37 658.85Z"/>
</g>
<g id="layer-yellow2" fill="#fecb3c">
<path id="yellow2-1" fill-rule="evenodd" d="M147.23 400.96C145.01 401.32 142.65 397.84 141.1 396.61C135.15 391.89 129.07 386.95 123.59 381.64C122.08 380.18 120.1 379.18 118.52 377.74C111.82 371.64 107.54 363.38 105.35 354.63C104.71 352.09 105.22 348.88 105.22 346.26C105.22 343.77 104.88 341 105.26 338.53C105.72 335.48 107.41 332.31 108.78 329.57C114.89 317.39 125.79 309.9 139.01 307.17C143.86 306.16 149.64 307.09 154.27 308.24C168.46 311.77 171.97 318.45 182.64 327.01C185.1 328.98 197.55 338.16 197.59 340.7C197.65 344.81 191.6 348.24 189.45 351.23C180.4 363.84 169.33 375.07 159.6 387.16C157.69 389.54 149.6 400.59 147.23 400.96Z"/>
<path id="yellow2-2" fill-rule="evenodd" d="M476.03 663.56C480.68 663.3 482.9 666.58 486.93 668.22C490.17 669.53 492.75 671.7 495.75 673.45C501.01 676.52 516.12 682.87 519.44 687.09C516.49 687.85 517.79 691.67 515.16 695.04C513.34 697.38 512.57 700.36 511.22 703.06C507.63 710.22 503.94 717.17 499 723.45C497 725.99 493.06 727.5 490.1 728.43C476.66 732.65 463.23 724.98 459.54 711.47C455.14 695.36 478.17 674.73 476.03 663.56Z"/>
</g>
<g id="layer-blue_d" fill="#0175fe">
<path id="blue_d-1" fill-rule="evenodd" d="M343 258.63C340.57 256.45 338.69 254 335.92 252.15C335.35 251.76 333.51 250.98 333.35 250.27C333.05 249.01 334.44 248.77 333.21 247.41C327.35 240.94 320.42 235.4 314 229.49C306.51 222.6 298.17 216.4 290.6 209.61C284.87 204.48 279.63 198.72 273.46 194.13C272.29 193.26 271.59 194.86 270.57 194.06C267.36 191.54 264.27 188.07 261.29 185.23C270.08 173.53 281.19 162.75 291.62 152.28C307.42 136.41 313.35 125.17 337.37 120.42C341.43 119.62 346.12 120.07 350.19 120.34C374.69 121.98 396.52 141.89 400.17 166.16C400.36 167.45 401.18 168.54 401.38 169.82C402.39 176.46 401.91 185.2 399.86 191.49C393.97 209.59 381.8 218.08 369.99 231.81C364.95 237.65 358.91 242.55 353.87 248.36C351.74 250.82 349.72 254.14 347.18 256.17C345.84 257.24 343.98 257.72 343 258.63ZM285.59 183.28C287.93 187.54 301.43 197.71 305.86 201.72C309.37 204.89 312.45 208.52 315.9 211.74C321.31 216.79 327.56 221.24 333 226.28C336.3 229.34 339.22 232.86 342.69 235.69C348.97 231.41 353.81 224.67 358.7 218.95C368.76 207.17 380.72 200.6 384.12 184.39C384.38 183.12 385.19 182.03 385.3 180.72C385.8 175.32 384.68 173.84 384.06 169.32C382.03 154.43 369.49 141.41 354.74 137.82C348.29 136.26 335.58 138.3 329.39 140.46C320.68 143.5 316.91 150.1 311.09 156.1C302.62 164.84 292.8 173.61 285.59 183.28Z"/>
</g>
<g id="layer-blue" fill="#008cfe">
<path id="blue-1" fill-rule="evenodd" d="M342.66 237.84C337.39 234.75 333.94 229.01 329.05 225.27C320.2 218.52 312.68 210.33 304.37 202.91C301.95 200.76 299.2 199.16 296.96 196.79C294.7 194.4 283.34 185.89 283.32 183.46C283.31 182.21 297.33 167.1 299.29 165.21C314.58 150.47 321.61 135.8 345.51 135.8C348.41 135.8 351.66 135.39 354.53 135.84C366.44 137.72 379.62 149.75 384.15 160.55C385.38 163.47 385.34 166.34 386.12 169.26C387.16 173.14 388.09 177.88 387.14 181.96C382.57 201.74 372.61 206 360.32 220C355.13 225.92 349.8 234.33 342.66 237.84Z"/>
<path id="blue-2" fill-rule="evenodd" d="M527.46 691.1C525.85 690.47 517.28 687.96 516.52 686.45C516.25 685.91 516.03 684.66 515.85 684.11C512.04 686.68 507.15 680.96 503.84 679.13C501.93 678.07 499.07 677.58 497.42 676.21C496.5 675.44 497.02 674.41 495.67 673.75C494.55 673.21 494.27 674.03 493.28 673.85C491.96 673.61 490.69 671.92 489.67 671.21C488.57 670.45 486.73 670.36 485.5 669.7C483.85 668.82 482.28 667.48 480.75 666.41C479.49 665.53 477.81 665.66 476.52 664.9C475.28 664.17 474.14 662.98 473.01 662.19C473.34 657.96 475.14 658.08 470.91 655.84C473.98 648.2 486.84 625.16 492.08 619.37C494.52 616.68 497.98 615.13 500.79 612.94C502.97 611.24 520.25 606.54 521.68 609.2C521.89 609.59 521.58 611.07 521.66 611.89C523.51 611.64 524.16 611.33 525.1 609.89C534.6 612.42 542.35 618.22 547.5 626.68C548.57 628.44 548.88 631.34 549.75 633.35C551.38 637.1 552.64 641.03 552.06 645.19C551.34 650.33 549 655.62 546.98 660.29C544.77 659.77 542.61 658.41 540.63 657.94C538.06 663.95 542.17 661.63 536.51 667.75C541.6 669.29 538.38 661.33 544.98 662.65C544.11 665.33 534.78 685.05 533.1 687.17C532.34 688.13 529.81 687.57 528.78 687.5C528.42 688.71 527.98 689.91 527.46 691.1Z"/>
</g>
<g id="layer-arcblue" fill="#2a7bfe">
<path id="arcblue-1" fill-rule="evenodd" d="M444.78 205.42C446.34 205.49 448.12 206.81 449.49 207.49C460.8 213.13 454.02 232 451.56 241.13C446.05 261.52 427.98 286.55 409.76 297.15C404.29 300.33 392.89 306.81 386.45 305.75C379.26 304.56 372.32 295.81 377.75 289.08C382.63 283.03 391.64 281.06 398.15 277.14C409.51 270.32 422.72 254.37 426.91 241.7C428.67 236.38 430.75 231.32 432.17 225.9C432.93 223.02 432.93 215.02 433.93 212.62C435.37 209.2 441.01 205.23 444.78 205.42Z"/>
<path id="arcblue-2" fill-rule="evenodd" d="M130.9 465.91C130.97 467.39 129.89 468.78 129.38 470.11C125.88 479.12 115.17 476.96 108.01 474.74C106.76 474.35 105.5 474.51 104.25 474C81.11 464.44 63.93 449.55 54.52 425.97C51.67 418.84 46.41 407.45 51.66 400.16C55.91 394.26 65.88 394.26 69.98 400.26C72.21 403.52 72.25 407.63 73.15 411.27C75.1 419.2 80.63 429.4 86.06 435.43C93.81 444.02 102.81 449.59 113.65 453.54C119.77 455.77 127.59 455.12 129.84 462.87C130.12 463.85 130.85 464.88 130.9 465.91Z"/>
<path id="arcblue-3" fill-rule="evenodd" d="M518.64 612.61C518.96 610.95 519.44 610.21 520.5 608.82C522.75 609.09 524.65 609.56 526.29 610.96C525.5 614.32 521.04 614.77 518.64 612.61Z"/>
<path id="arcblue-4" fill-rule="evenodd" d="M538.09 619.31C536.56 618.01 536.58 617.77 537.16 615.78C539.49 616.93 539.67 617.39 538.09 619.31Z"/>
<path id="arcblue-5" fill-rule="evenodd" d="M488.56 624.43C490.2 621.97 491.33 622.12 493.14 624.27C491.19 625.27 490.41 625.32 488.56 624.43Z"/>
<path id="arcblue-6" fill-rule="evenodd" d="M542.07 631.39C541.04 628.31 540.54 624.33 544.53 624.29C544.54 625.63 544.38 627.18 544.48 628.53C546.54 629.1 547.48 628.97 548.69 630.76C546.92 631.85 544.35 631.93 542.07 631.39Z"/>
<path id="arcblue-7" fill-rule="evenodd" d="M545.5 651.5C544.92 650.83 544.2 650.56 544.11 649.48C544.03 648.6 544.69 647.88 544.67 646.99C544.59 643.71 543.27 639.64 545.82 637.49C547.18 639.32 546.68 640.53 546.97 642.82C547.42 646.49 550.06 649.52 545.5 651.5Z"/>
<path id="arcblue-8" fill-rule="evenodd" d="M474.34 662.9C461.28 657.78 477.22 650.62 476.01 658.38C475.78 659.91 474.87 661.5 474.34 662.9Z"/>
<path id="arcblue-9" fill-rule="evenodd" d="M534.17 666.64C535.12 665.6 536.26 665.47 537.21 664.54C539.21 662.59 536.56 658.7 540.46 655.25C542.87 656.21 545.62 657.81 547.51 659.45C546.57 662.34 545.28 663.67 542.52 664.71C542.52 665.18 542.67 666.8 542.49 667.22C541.89 668.56 535.62 673.7 534.17 666.64Z"/>
<path id="arcblue-10" fill-rule="evenodd" d="M498.81 676.28C494.1 675.93 494.39 673.43 491.75 672.39C490.48 671.89 488.57 671.82 487.77 670.42C487.28 669.56 487.97 669.38 488.11 668.64C490.53 668.17 491.01 669.08 491.99 671.45C495.42 671.08 499.4 672.23 498.81 676.28Z"/>
<path id="arcblue-11" fill-rule="evenodd" d="M529.35 678.91C529.6 675.56 532.17 673.88 534.03 677.25C532.64 679.31 531.56 679.66 529.35 678.91Z"/>
<path id="arcblue-12" fill-rule="evenodd" d="M517.8 687.05C515.77 686.27 514.52 685.69 513.35 683.85C516.09 679.68 519.23 683.17 517.8 687.05Z"/>
<path id="arcblue-13" fill-rule="evenodd" d="M528.75 692.36C525.46 690.92 525.72 688.53 527.4 685.62C529.37 685.4 531.19 685.69 533.12 686.1C532.79 689.1 531.15 690.55 528.75 692.36Z"/>
</g>
<g id="layer-pillline" fill="#69aefd">
<path id="pillline-1" fill-rule="evenodd" d="M262.58 184.3C265.88 186.65 270.29 189.97 272.09 193.56C261.94 205.86 238.43 226.55 231.61 238.29C228.94 242.88 227.79 249.66 226.64 254.8C225.41 260.32 227.8 267.93 229.92 272.88C240.49 297.61 262.33 306.67 287.06 295.98C292.5 293.62 319.98 265.02 325.31 258.94C328.2 255.66 331.09 251.76 334.49 249.2C336.88 250.43 344.86 255.67 344 258.87C343.36 261.24 331.37 272.72 328.89 275.47C323.3 281.66 316.97 287.17 311.42 293.37C309.72 295.28 308.34 297.55 306.58 299.37C298.74 307.47 287.65 312.57 276.8 314.73C273.16 315.46 268.77 315.19 265.13 314.83C262.61 314.58 259.88 315.26 257.41 314.71C237.72 310.26 221.57 295.68 214.99 276.6C212.4 269.1 213.22 260.94 212.6 253.16C212.37 250.19 213.89 246.65 214.57 243.8C218.73 226.26 233.5 214.85 244.98 201.86C248.92 197.4 257.69 186.49 262.58 184.3Z"/>
<path id="pillline-2" fill-rule="evenodd" d="M652.14 1044.05C654.23 1041.92 656.95 1042.25 659.84 1042.77C661.07 1047.3 662.82 1045.17 665.31 1047.92C661.11 1050.3 655.19 1047.51 652.14 1044.05Z"/>
</g>
</svg>