<svg xmlns="http://www.w3.org/2000/svg" width="390" height="1164" viewBox="0 0 390 1164">
<defs><style>@import url('https://fonts.googleapis.com/css2?family=Noto+Sans+Thai:wght@400;500;600;700&amp;display=swap');
.t{font-family:Noto Sans Thai,Noto Sans,sans-serif}</style></defs>
<title>JudYa — Dose Adjust (dose schedule)</title><rect width="390" height="1164" fill="#F5FAFF"/><g transform="translate(22,14) scale(1.17)" color="#0B3A6B" fill="none" stroke="#0B3A6B" stroke-width="1.71" stroke-linecap="round" stroke-linejoin="round"><path d="M15 18l-6-6 6-6"/></g><text x="195" y="35" class="t" font-size="17" font-weight="700" fill="#0B3A6B" text-anchor="middle">ปรับโดส</text><rect x="290" y="6" width="76" height="44" rx="22" fill="#E6F4FF"/><text x="328" y="34" class="t" font-size="13" font-weight="600" fill="#0B3A6B" text-anchor="middle">ประวัติ</text><rect x="24" y="62" width="342" height="68" rx="14" fill="#FFFFFF" stroke="#D5E3F0" stroke-width="1"/><text x="40" y="91" class="t" font-size="16" font-weight="700" fill="#0B3A6B" text-anchor="start">Vitamin D 1000 IU</text><text x="40" y="114" class="t" font-size="12" font-weight="400" fill="#4F6A85" text-anchor="start">คุณพ่อ</text><text x="24" y="158" class="t" font-size="13" font-weight="600" fill="#4F6A85" text-anchor="start">ตารางและโดสปัจจุบัน</text><rect x="24" y="170" width="342" height="68" rx="12" fill="#E6F4FF"/><text x="40" y="197" class="t" font-size="15" font-weight="700" fill="#0B3A6B" text-anchor="start">ทุกวัน</text><text x="40" y="220" class="t" font-size="14" font-weight="500" fill="#0B3A6B" text-anchor="start">เช้า 1 เม็ด</text><text x="24" y="268" class="t" font-size="13" font-weight="600" fill="#4F6A85" text-anchor="start">ตารางวันใหม่</text><rect x="24" y="280" width="88" height="48" rx="24" fill="#FFFFFF" stroke="#D5E3F0" stroke-width="1"/><text x="68" y="309" class="t" font-size="13" font-weight="600" fill="#0B3A6B" text-anchor="middle">ทุกวัน</text><rect x="120" y="280" width="100" height="48" rx="24" fill="#0B3A6B"/><g transform="translate(134,295) scale(0.75)" color="#FFFFFF" fill="none" stroke="#FFFFFF" stroke-width="3.2" stroke-linecap="round" stroke-linejoin="round"><path d="M5 12.5l4.5 4.5L19 7.5"/></g><text x="180" y="309" class="t" font-size="13" font-weight="600" fill="#FFFFFF" text-anchor="middle">เลือกวัน</text><rect x="228" y="280" width="112" height="48" rx="24" fill="#FFFFFF" stroke="#D5E3F0" stroke-width="1"/><text x="284" y="309" class="t" font-size="13" font-weight="600" fill="#0B3A6B" text-anchor="middle">วันเว้นวัน</text><rect x="24" y="336" width="104" height="48" rx="24" fill="#FFFFFF" stroke="#D5E3F0" stroke-width="1"/><text x="76" y="365" class="t" font-size="13" font-weight="600" fill="#0B3A6B" text-anchor="middle">ทุกกี่วัน</text><rect x="136" y="336" width="140" height="48" rx="24" fill="#FFFFFF" stroke="#D5E3F0" stroke-width="1"/><text x="206" y="365" class="t" font-size="13" font-weight="600" fill="#0B3A6B" text-anchor="middle">วันที่ของเดือน</text><text x="24" y="408" class="t" font-size="13" font-weight="600" fill="#0B3A6B" text-anchor="start">เลือกวันที่ทาน</text><circle cx="46" cy="442" r="21.5" fill="#FFFFFF" stroke="#D5E3F0" stroke-width="1"/><text x="46" y="447" class="t" font-size="13" font-weight="600" fill="#0B3A6B" text-anchor="middle">อา</text><circle cx="95.67" cy="442" r="22" fill="#0B3A6B"/><text x="95.67" y="447" class="t" font-size="13" font-weight="700" fill="#FFFFFF" text-anchor="middle">จ</text><circle cx="145.33" cy="442" r="21.5" fill="#FFFFFF" stroke="#D5E3F0" stroke-width="1"/><text x="145.33" y="447" class="t" font-size="13" font-weight="600" fill="#0B3A6B" text-anchor="middle">อ</text><circle cx="195" cy="442" r="22" fill="#0B3A6B"/><text x="195" y="447" class="t" font-size="13" font-weight="700" fill="#FFFFFF" text-anchor="middle">พ</text><circle cx="244.67" cy="442" r="21.5" fill="#FFFFFF" stroke="#D5E3F0" stroke-width="1"/><text x="244.67" y="447" class="t" font-size="13" font-weight="600" fill="#0B3A6B" text-anchor="middle">พฤ</text><circle cx="294.33" cy="442" r="22" fill="#0B3A6B"/><text x="294.33" y="447" class="t" font-size="13" font-weight="700" fill="#FFFFFF" text-anchor="middle">ศ</text><circle cx="344" cy="442" r="21.5" fill="#FFFFFF" stroke="#D5E3F0" stroke-width="1"/><text x="344" y="447" class="t" font-size="13" font-weight="600" fill="#0B3A6B" text-anchor="middle">ส</text><rect x="24" y="488" width="342" height="100" rx="14" fill="#FFF7DB"/><g transform="translate(38,504) scale(1)" color="#0B3A6B" fill="none" stroke="#0B3A6B" stroke-width="2" stroke-linecap="round" stroke-linejoin="round"><path d="M12 3.5l9.5 16.5h-19L12 3.5z"/><path d="M12 10v4.5"/><path d="M12 17.2h.01"/></g><text x="74" y="521" class="t" font-size="13" font-weight="700" fill="#0B3A6B" text-anchor="start">สิ่งที่จะเปลี่ยน (ต้องยืนยันก่อนบันทึก)</text><text x="74" y="545" class="t" font-size="14" font-weight="600" fill="#0B3A6B" text-anchor="start">ตาราง: ทุกวัน → ทุก จ. พ. ศ.</text><text x="74" y="567" class="t" font-size="12" font-weight="400" fill="#4F6A85" text-anchor="start">โดสในวันที่ทาน: เช้า 1 เม็ด (เท่าเดิม)</text><text x="24" y="616" class="t" font-size="13" font-weight="600" fill="#4F6A85" text-anchor="start">โดสใหม่ (ในวันที่ทาน)</text><text x="24" y="908" class="t" font-size="13" font-weight="600" fill="#4F6A85" text-anchor="start">เหตุผล / แหล่งข้อมูล</text><rect x="24" y="918" width="342" height="52" rx="12" fill="#FFFFFF" stroke="#D5E3F0" stroke-width="1"/><text x="40" y="950" class="t" font-size="13" font-weight="400" fill="#4F6A85" text-anchor="start">ปรับตามคำแนะนำแพทย์</text><rect x="24" y="628" width="342" height="56" rx="12" fill="#FFFFFF" stroke="#D5E3F0" stroke-width="1"/><text x="40" y="661" class="t" font-size="14" font-weight="600" fill="#0B3A6B" text-anchor="start">เช้า</text><rect x="212" y="632" width="48" height="48" rx="12" fill="#E6F4FF"/><g transform="translate(226,646) scale(0.83)" color="#0B3A6B" fill="none" stroke="#0B3A6B" stroke-width="2.88" stroke-linecap="round" stroke-linejoin="round"><path d="M5 12h14"/></g><text x="286" y="662" class="t" font-size="17" font-weight="700" fill="#0B3A6B" text-anchor="middle">1</text><rect x="312" y="632" width="48" height="48" rx="12" fill="#E6F4FF"/><g transform="translate(326,646) scale(0.83)" color="#0B3A6B" fill="none" stroke="#0B3A6B" stroke-width="2.88" stroke-linecap="round" stroke-linejoin="round"><path d="M12 5v14M5 12h14"/></g><rect x="24" y="692" width="342" height="56" rx="12" fill="#FFFFFF" stroke="#D5E3F0" stroke-width="1"/><text x="40" y="725" class="t" font-size="14" font-weight="600" fill="#0B3A6B" text-anchor="start">กลางวัน</text><rect x="212" y="696" width="48" height="48" rx="12" fill="#E6F4FF"/><g transform="translate(226,710) scale(0.83)" color="#0B3A6B" fill="none" stroke="#0B3A6B" stroke-width="2.88" stroke-linecap="round" stroke-linejoin="round"><path d="M5 12h14"/></g><text x="286" y="726" class="t" font-size="17" font-weight="700" fill="#0B3A6B" text-anchor="middle">0</text><rect x="312" y="696" width="48" height="48" rx="12" fill="#E6F4FF"/><g transform="translate(326,710) scale(0.83)" color="#0B3A6B" fill="none" stroke="#0B3A6B" stroke-width="2.88" stroke-linecap="round" stroke-linejoin="round"><path d="M12 5v14M5 12h14"/></g><rect x="24" y="756" width="342" height="56" rx="12" fill="#FFFFFF" stroke="#D5E3F0" stroke-width="1"/><text x="40" y="789" class="t" font-size="14" font-weight="600" fill="#0B3A6B" text-anchor="start">เย็น</text><rect x="212" y="760" width="48" height="48" rx="12" fill="#E6F4FF"/><g transform="translate(226,774) scale(0.83)" color="#0B3A6B" fill="none" stroke="#0B3A6B" stroke-width="2.88" stroke-linecap="round" stroke-linejoin="round"><path d="M5 12h14"/></g><text x="286" y="790" class="t" font-size="17" font-weight="700" fill="#0B3A6B" text-anchor="middle">0</text><rect x="312" y="760" width="48" height="48" rx="12" fill="#E6F4FF"/><g transform="translate(326,774) scale(0.83)" color="#0B3A6B" fill="none" stroke="#0B3A6B" stroke-width="2.88" stroke-linecap="round" stroke-linejoin="round"><path d="M12 5v14M5 12h14"/></g><rect x="24" y="820" width="342" height="56" rx="12" fill="#FFFFFF" stroke="#D5E3F0" stroke-width="1"/><text x="40" y="853" class="t" font-size="14" font-weight="600" fill="#0B3A6B" text-anchor="start">ก่อนนอน</text><rect x="212" y="824" width="48" height="48" rx="12" fill="#E6F4FF"/><g transform="translate(226,838) scale(0.83)" color="#0B3A6B" fill="none" stroke="#0B3A6B" stroke-width="2.88" stroke-linecap="round" stroke-linejoin="round"><path d="M5 12h14"/></g><text x="286" y="854" class="t" font-size="17" font-weight="700" fill="#0B3A6B" text-anchor="middle">0</text><rect x="312" y="824" width="48" height="48" rx="12" fill="#E6F4FF"/><g transform="translate(326,838) scale(0.83)" color="#0B3A6B" fill="none" stroke="#0B3A6B" stroke-width="2.88" stroke-linecap="round" stroke-linejoin="round"><path d="M12 5v14M5 12h14"/></g><rect x="24" y="996" width="342" height="52" rx="14" fill="#0B3A6B"/><text x="195" y="1027" class="t" font-size="14" font-weight="700" fill="#FFFFFF" text-anchor="middle">บันทึกการปรับโดส</text><rect x="24" y="1060" width="342" height="48" rx="14" fill="#FFFFFF" stroke="#D5E3F0" stroke-width="1"/><text x="195" y="1089" class="t" font-size="14" font-weight="700" fill="#0B3A6B" text-anchor="middle">หยุดใช้ยา</text><text x="195" y="1136" class="t" font-size="12" font-weight="400" fill="#4F6A85" text-anchor="middle">การเปลี่ยนยาจะถูกบันทึกในประวัติ ลบย้อนหลังไม่ได้</text></svg>